<svg width="27" height="27" viewBox="0 0 27 27" fill="none" xmlns="http://www.w3.org/2000/svg">
<path d="M13.1868 8.54858C10.4412 8.54858 8.19482 10.795 8.19482 13.5405C8.19482 16.2861 10.4412 18.5325 13.1868 18.5325C15.9324 18.5325 18.1788 16.2861 18.1788 13.5405C18.1788 10.795 15.9324 8.54858 13.1868 8.54858ZM13.1868 16.8685C11.3564 16.8685 9.85881 15.3709 9.85881 13.5405C9.85881 11.7102 11.3564 10.2126 13.1868 10.2126C15.0172 10.2126 16.5148 11.7102 16.5148 13.5405C16.5148 15.3709 15.0172 16.8685 13.1868 16.8685Z" fill="black"/>
<path d="M13.1869 20.7792C10.0877 20.7792 7.11336 22.0688 4.99177 24.3359C4.68097 24.6698 4.70223 25.1971 5.03319 25.511C5.36258 25.8233 5.88884 25.8122 6.19816 25.4799C8.02855 23.5248 10.5037 22.4432 13.1869 22.4432C15.8701 22.4432 18.3453 23.5248 20.1757 25.4799C20.485 25.8122 21.0112 25.8233 21.3406 25.511C21.6716 25.1971 21.6929 24.6698 21.3821 24.3359C19.2605 22.0896 16.2861 20.7792 13.1869 20.7792Z" fill="black"/>
<path d="M20.8815 9.81617C20.4242 9.77188 20.0508 10.1485 20.0508 10.608C20.0508 11.0675 20.4246 11.4347 20.881 11.4882C22.2422 11.6477 23.5065 12.1992 24.5604 13.0899C24.9131 13.388 25.4398 13.4074 25.7749 13.0896C26.1067 12.7749 26.1259 12.2482 25.7835 11.945C24.422 10.7393 22.697 9.99199 20.8815 9.81617Z" fill="black"/>
<path d="M24.0237 3.97277C24.0237 1.78879 22.2349 0 20.0509 0C17.8669 0 16.0781 1.78879 16.0781 3.97277C16.0781 6.15676 17.8669 7.94554 20.0509 7.94554C22.2349 7.94554 24.0237 6.15676 24.0237 3.97277ZM17.7421 3.97277C17.7421 2.70398 18.7821 1.66399 20.0509 1.66399C21.3197 1.66399 22.3597 2.70398 22.3597 3.97277C22.3597 5.24156 21.3197 6.28155 20.0509 6.28155C18.7821 6.28155 17.7421 5.24156 17.7421 3.97277Z" fill="black"/>
<path d="M6.32315 10.608C6.32315 10.1485 5.94975 9.77188 5.4924 9.81617C3.67591 9.99209 1.94995 10.7401 0.58804 11.9471C0.247109 12.2493 0.266149 12.774 0.596708 13.0874C0.932333 13.4057 1.4604 13.3841 1.81298 13.0848C2.85874 12.1969 4.13056 11.6471 5.49294 11.4881C5.94933 11.4348 6.32315 11.0675 6.32315 10.608Z" fill="black"/>
<path d="M10.2956 3.97277C10.2956 1.78879 8.50685 0 6.32287 0C4.13888 0 2.3501 1.78879 2.3501 3.97277C2.3501 6.15676 4.13888 7.94554 6.32287 7.94554C8.50685 7.94554 10.2956 6.15676 10.2956 3.97277ZM6.32287 6.28155C5.05408 6.28155 4.01409 5.24156 4.01409 3.97277C4.01409 2.70398 5.05408 1.66399 6.32287 1.66399C7.59166 1.66399 8.63165 2.70398 8.63165 3.97277C8.63165 5.24156 7.59166 6.28155 6.32287 6.28155Z" fill="black"/>
</svg>
