<svg width="36" height="29" viewBox="0 0 36 29" fill="none" xmlns="http://www.w3.org/2000/svg">
<path d="M29.5807 21.547L29.5923 10.8236L21.9633 3.21782C19.6614 0.927395 15.9365 0.927395 13.6345 3.21782L6.02295 10.8063V21.5412C6.02873 24.7859 8.66619 27.4176 11.9109 27.4118H23.6927C26.9375 27.4118 29.5749 24.7917 29.5807 21.547Z" stroke="black" stroke-width="3" stroke-linecap="round" stroke-linejoin="round"/>
<path d="M20.5751 13.2818C20.5462 14.8088 19.2911 16.0234 17.7641 16.006C16.2372 15.9887 15.011 14.7394 15.0225 13.2124C15.0341 11.6855 16.2719 10.4535 17.7988 10.4535C18.5391 10.4593 19.2506 10.76 19.7711 11.2922C20.2917 11.8243 20.5809 12.5357 20.5751 13.2818Z" stroke="black" stroke-width="3" stroke-linecap="round" stroke-linejoin="round"/>
<path d="M9.1116 7.72925L1.5 15.3177" stroke="black" stroke-width="3" stroke-linecap="round" stroke-linejoin="round"/>
<path d="M34.1038 15.3177L26.4922 7.72925" stroke="black" stroke-width="3" stroke-linecap="round" stroke-linejoin="round"/>
<path d="M29.5923 19.4359V4.64648" stroke="black" stroke-width="3" stroke-linecap="round" stroke-linejoin="round"/>
<path d="M14.4038 21.547H21.1941" stroke="black" stroke-width="3" stroke-linecap="round" stroke-linejoin="round"/>
</svg>
