<svg width="40" height="29" viewBox="0 0 36 29" fill="none" xmlns="http://www.w3.org/2000/svg">
<path d="M29.5806 21.547L29.5922 10.8236L21.9632 3.21782C19.6612 0.927395 15.9364 0.927395 13.6344 3.21782L6.02282 10.8063V21.5412C6.0286 24.7859 8.66606 27.4176 11.9108 27.4118H23.6926C26.9374 27.4118 29.5748 24.7917 29.5806 21.547Z" stroke="black" stroke-width="3" stroke-linecap="round" stroke-linejoin="round"/>
<path d="M29.5807 21.547L29.5923 10.8236L21.9633 3.21782C19.6614 0.927395 15.9365 0.927395 13.6345 3.21782L6.02295 10.8063V21.5412C6.02873 24.7859 8.66619 27.4176 11.9109 27.4118H23.6927C26.9375 27.4118 29.5749 24.7917 29.5807 21.547Z" stroke="black" stroke-width="3" stroke-linecap="round" stroke-linejoin="round"/>
<path d="M20.5753 13.2818C20.5464 14.8088 19.2913 16.0234 17.7643 16.006C16.2374 15.9887 15.0112 14.7394 15.0228 13.2124C15.0343 11.6855 16.2721 10.4535 17.799 10.4535C18.5394 10.4593 19.2508 10.76 19.7713 11.2922C20.2919 11.8243 20.5811 12.5357 20.5753 13.2818Z" stroke="black" stroke-width="3" stroke-linecap="round" stroke-linejoin="round"/>
<path d="M9.1116 7.72922L1.5 15.3177" stroke="black" stroke-width="3" stroke-linecap="round" stroke-linejoin="round"/>
<path d="M34.1037 15.3177L26.4921 7.72922" stroke="black" stroke-width="3" stroke-linecap="round" stroke-linejoin="round"/>
<path d="M29.5925 19.4359V4.64645" stroke="black" stroke-width="3" stroke-linecap="round" stroke-linejoin="round"/>
<path d="M14.4038 21.547H21.1941" stroke="black" stroke-width="3" stroke-linecap="round" stroke-linejoin="round"/>
</svg>
