<svg width="31" height="30" viewBox="0 0 31 30" fill="none" xmlns="http://www.w3.org/2000/svg">
<path d="M3.05556 15.2787H1.5V9.15481C1.5 7.46375 2.89289 6.09288 4.61111 6.09288H10.8333M3.05556 15.2787V24.4644C3.05556 26.1555 4.44845 27.5263 6.16667 27.5263H24.8333C26.5516 27.5263 27.9444 26.1555 27.9444 24.4644V15.2787M3.05556 15.2787H12.3889M10.8333 6.09288V4.56192C10.8333 2.87087 12.2262 1.5 13.9444 1.5H17.0556C18.7738 1.5 20.1667 2.87087 20.1667 4.56192V6.09288M10.8333 6.09288H20.1667M27.9444 15.2787H29.5V9.15481C29.5 7.46375 28.1072 6.09288 26.3889 6.09288H20.1667M27.9444 15.2787H18.6111M12.3889 15.2787V12.2167H18.6111V15.2787M12.3889 15.2787V18.3406H18.6111V15.2787" stroke="black" stroke-width="3" stroke-linecap="round" stroke-linejoin="round"/>
</svg>
