<svg width="25" height="28" viewBox="0 0 25 28" fill="none" xmlns="http://www.w3.org/2000/svg">
<path d="M22.5 25V2.5H13.75C13.4185 2.5 13.1005 2.3683 12.8661 2.13388C12.6317 1.89946 12.5 1.58152 12.5 1.25C12.5 0.918479 12.6317 0.600537 12.8661 0.366116C13.1005 0.131696 13.4185 0 13.75 0H23.75C24.0815 0 24.3995 0.131696 24.6339 0.366116C24.8683 0.600537 25 0.918479 25 1.25V26.25C25 26.5815 24.8683 26.8995 24.6339 27.1339C24.3995 27.3683 24.0815 27.5 23.75 27.5H13.75C13.4185 27.5 13.1005 27.3683 12.8661 27.1339C12.6317 26.8995 12.5 26.5815 12.5 26.25C12.5 25.9185 12.6317 25.6005 12.8661 25.3661C13.1005 25.1317 13.4185 25 13.75 25H22.5ZM0 13.75C0 14.0815 0.131696 14.3995 0.366116 14.6339C0.600537 14.8683 0.918479 15 1.25 15H15.7325L12.8663 17.8663C12.7469 17.9816 12.6516 18.1195 12.5861 18.272C12.5206 18.4245 12.4861 18.5885 12.4847 18.7545C12.4832 18.9205 12.5149 19.0851 12.5777 19.2387C12.6406 19.3923 12.7334 19.5319 12.8508 19.6492C12.9681 19.7666 13.1077 19.8594 13.2613 19.9223C13.4149 19.9851 13.5795 20.0168 13.7455 20.0153C13.9115 20.0139 14.0755 19.9794 14.228 19.9139C14.3805 19.8484 14.5184 19.7531 14.6337 19.6338L19.6338 14.6337C19.8681 14.3993 19.9997 14.0815 19.9997 13.75C19.9997 13.4185 19.8681 13.1007 19.6338 12.8663L14.6337 7.86625C14.5184 7.74686 14.3805 7.65163 14.228 7.58612C14.0755 7.52061 13.9115 7.48613 13.7455 7.48469C13.5795 7.48324 13.4149 7.51487 13.2613 7.57772C13.1077 7.64057 12.9681 7.73339 12.8508 7.85076C12.7334 7.96812 12.6406 8.10769 12.5777 8.26131C12.5149 8.41493 12.4832 8.57953 12.4847 8.7455C12.4861 8.91148 12.5206 9.0755 12.5861 9.22801C12.6516 9.38051 12.7469 9.51844 12.8663 9.63375L15.7325 12.5H1.25C0.918479 12.5 0.600537 12.6317 0.366116 12.8661C0.131696 13.1005 0 13.4185 0 13.75Z" fill="black"/>
</svg>
