<svg width="53" height="53" viewBox="0 0 53 53" fill="none" xmlns="http://www.w3.org/2000/svg">
<path d="M12.9544 42.5674C12.2977 42.5681 11.6411 42.555 10.985 42.5283L10.6781 42.4586C9.88537 42.2738 9.16311 41.8633 8.59875 41.2766C8.03439 40.69 7.65211 39.9524 7.49815 39.153L7.44794 38.8964C7.43399 38.6007 7.42004 37.7639 7.42004 37.0358V12.3685C7.42152 12.0171 7.56197 11.6805 7.81074 11.4322C8.05951 11.184 8.39639 11.0443 8.74783 11.0435H38.4111C38.7623 11.0443 39.0989 11.1841 39.3472 11.4324C39.5955 11.6807 39.7354 12.0173 39.7361 12.3685V16.6336H44.1741C44.5466 16.6351 44.9033 16.7837 45.1666 17.047C45.43 17.3104 45.5786 17.6671 45.58 18.0395V38.1014C45.58 39.2851 45.1098 40.4203 44.2728 41.2573C43.4358 42.0943 42.3006 42.5646 41.1169 42.5646L12.9544 42.5674ZM12.9544 39.4738H36.8657C36.7231 39.0313 36.6507 38.5692 36.6509 38.1042V32.0399C36.6456 31.9386 36.6428 31.8372 36.6426 31.7358V14.1343H10.5136V37.0358C10.5136 37.6439 10.5219 38.2353 10.5303 38.5533L10.5359 38.5756C10.5775 38.7855 10.6785 38.9791 10.8268 39.1334C10.9751 39.2876 11.1646 39.3961 11.3727 39.4459L11.4006 39.4515C11.7716 39.4627 12.3993 39.4738 12.9544 39.4738ZM33.2227 19.0103H13.8079V22.1038H33.2227V19.0103ZM22.0648 25.6576H13.8079V35.51H22.0648V25.6576ZM33.2283 25.7301H25.1974V28.8236H33.2255L33.2283 25.7301ZM33.2283 32.4527H25.1974V35.5435H33.2255L33.2283 32.4527ZM39.7445 19.7244V38.1042C39.7445 38.4682 39.8891 38.8173 40.1464 39.0747C40.4038 39.332 40.7529 39.4766 41.1169 39.4766C41.4809 39.4766 41.83 39.332 42.0873 39.0747C42.3447 38.8173 42.4893 38.4682 42.4893 38.1042V19.7216L39.7445 19.7244Z" fill="black"/>
</svg>
