<svg width="40" height="24" viewBox="0 0 40 24" fill="none" xmlns="http://www.w3.org/2000/svg">
<path d="M9.21094 11.1094C11.6142 11.1094 13.5625 9.16111 13.5625 6.75781C13.5625 4.35451 11.6142 2.40625 9.21094 2.40625C6.80764 2.40625 4.85938 4.35451 4.85938 6.75781C4.85938 9.16111 6.80764 11.1094 9.21094 11.1094Z" fill="#FFBACE" stroke="black" stroke-width="2.8125"/>
<path d="M29.9297 11.1094C32.333 11.1094 34.2812 9.16111 34.2812 6.75781C34.2812 4.35451 32.333 2.40625 29.9297 2.40625C27.5264 2.40625 25.5781 4.35451 25.5781 6.75781C25.5781 9.16111 27.5264 11.1094 29.9297 11.1094Z" fill="#FFBACE" stroke="black" stroke-width="2.8125"/>
<path d="M19.9844 10.1094C22.3877 10.1094 24.3359 8.16111 24.3359 5.75781C24.3359 3.35451 22.3877 1.40625 19.9844 1.40625C17.5811 1.40625 15.6328 3.35451 15.6328 5.75781C15.6328 8.16111 17.5811 10.1094 19.9844 10.1094Z" fill="#FFBACE" stroke="black" stroke-width="2.8125"/>
<path d="M27.6875 22.1875H37.7344C37.7344 19.8524 36.8067 17.6128 35.1555 15.9616C33.5043 14.3104 31.2648 13.3828 28.9297 13.3828C27.4883 13.3822 26.069 13.7363 24.7969 14.4141" fill="#FFBACE"/>
<path d="M27.6875 22.1875H37.7344C37.7344 19.8524 36.8067 17.6128 35.1555 15.9616C33.5043 14.3104 31.2648 13.3828 28.9297 13.3828C27.4883 13.3822 26.069 13.7363 24.7969 14.4141" stroke="black" stroke-width="2.8125"/>
<path d="M11.4531 22.1875H1.40625C1.40625 19.8524 2.33388 17.6128 3.98508 15.9616C5.63628 14.3104 7.87579 13.3828 10.2109 13.3828C11.6523 13.3822 13.0717 13.7363 14.3438 14.4141" fill="#FFBACE"/>
<path d="M11.4531 22.1875H1.40625C1.40625 19.8524 2.33388 17.6128 3.98508 15.9616C5.63628 14.3104 7.87579 13.3828 10.2109 13.3828C11.6523 13.3822 13.0717 13.7363 14.3437 14.4141" stroke="black" stroke-width="2.8125"/>
<path d="M28.7891 22.1875C28.787 19.853 27.8587 17.6147 26.2079 15.9639C24.5572 14.3132 22.3189 13.3849 19.9844 13.3828C17.6492 13.3828 15.4097 14.3104 13.7585 15.9616C12.1073 17.6128 11.1797 19.8524 11.1797 22.1875H28.7891Z" fill="#FFBACE" stroke="black" stroke-width="2.8125"/>
</svg>
