<svg width="31" height="29" viewBox="0 0 31 29" fill="none" xmlns="http://www.w3.org/2000/svg">
<path d="M3.9 6.2585H8.3L10.3 5.8585L11.9 2.6585L14.3 1.4585L18.7 1.8585L20.3 6.2585H25.1L28.7 7.4585L29.5 15.0585L27.5 15.4585L27.9 24.2585L25.9 27.4585H5.9L3.9 25.8585L3.5 16.2585L2.3 15.8585L1.5 9.4585L3.9 6.2585Z" fill="#FFE79D"/>
<path d="M3.05556 15.2647H1.5V9.14706C1.5 7.45772 2.89289 6.08824 4.61111 6.08824H10.8333M3.05556 15.2647V24.4412C3.05556 26.1306 4.44845 27.5 6.16667 27.5H24.8333C26.5516 27.5 27.9444 26.1306 27.9444 24.4412V15.2647M3.05556 15.2647H12.3889M10.8333 6.08824V4.55882C10.8333 2.86948 12.2262 1.5 13.9444 1.5H17.0556C18.7738 1.5 20.1667 2.86948 20.1667 4.55882V6.08824M10.8333 6.08824H20.1667M27.9444 15.2647H29.5V9.14706C29.5 7.45772 28.1072 6.08824 26.3889 6.08824H20.1667M27.9444 15.2647H18.6111M12.3889 15.2647V12.2059H18.6111V15.2647M12.3889 15.2647V18.3235H18.6111V15.2647" stroke="black" stroke-width="3" stroke-linecap="round" stroke-linejoin="round"/>
</svg>
