<svg width="31" height="29" viewBox="0 0 31 29" fill="none" xmlns="http://www.w3.org/2000/svg">
<path d="M3.50001 5.90159H7.90001L9.90001 5.50159L11.5 2.30159L13.9 1.10159L18.3 1.50159L19.9 5.90159H24.7L28.3 7.10159L29.1 14.7016L27.1 15.1016L27.5 23.9016L25.5 27.1016H5.50001L3.50001 25.5016L3.10001 15.9016L1.90001 15.5016L1.10001 9.10159L3.50001 5.90159Z" fill="#FFE79D"/>
<path d="M3.01111 15.0667H1.5V9.03704C1.5 7.372 2.85309 6.02222 4.52222 6.02222H10.5667M3.01111 15.0667V24.1111C3.01111 25.7762 4.36421 27.1259 6.03333 27.1259H24.1667C25.8358 27.1259 27.1889 25.7762 27.1889 24.1111V15.0667M3.01111 15.0667H12.0778H3.01111ZM27.1889 15.0667H28.7V9.03704C28.7 7.372 27.347 6.02222 25.6778 6.02222H19.6333M27.1889 15.0667H18.1222H27.1889ZM18.1222 15.0667V12.0519H12.0778V15.0667M18.1222 15.0667V18.0815H12.0778V15.0667M10.5667 6.02222V4.51482C10.5667 2.84978 11.9198 1.5 13.5889 1.5H16.6111C18.2803 1.5 19.6333 2.84978 19.6333 4.51482V6.02222M10.5667 6.02222H19.6333H10.5667Z" fill="#FFE79D"/>
<path d="M3.01111 15.0667H1.5V9.03704C1.5 7.372 2.85309 6.02222 4.52222 6.02222H10.5667M3.01111 15.0667V24.1111C3.01111 25.7762 4.36421 27.1259 6.03333 27.1259H24.1667C25.8358 27.1259 27.1889 25.7762 27.1889 24.1111V15.0667M3.01111 15.0667H12.0778M10.5667 6.02222V4.51482C10.5667 2.84978 11.9198 1.5 13.5889 1.5H16.6111C18.2803 1.5 19.6333 2.84978 19.6333 4.51482V6.02222M10.5667 6.02222H19.6333M27.1889 15.0667H28.7V9.03704C28.7 7.372 27.347 6.02222 25.6778 6.02222H19.6333M27.1889 15.0667H18.1222M12.0778 15.0667V12.0519H18.1222V15.0667M12.0778 15.0667V18.0815H18.1222V15.0667" stroke="black" stroke-width="3" stroke-linecap="round" stroke-linejoin="round"/>
</svg>
