<svg width="29" height="32" viewBox="0 0 29 32" fill="none" xmlns="http://www.w3.org/2000/svg">
<path d="M25.75 1C26.3467 1 26.9189 1.23722 27.3408 1.65918C27.7628 2.08114 28 2.65327 28 3.25V28.25C28 28.8467 27.7628 29.4189 27.3408 29.8408C26.9189 30.2628 26.3467 30.5 25.75 30.5H15.75C15.1533 30.5 14.5811 30.2628 14.1592 29.8408C13.7372 29.4189 13.5 28.8467 13.5 28.25C13.5 27.6533 13.7372 27.0811 14.1592 26.6592C14.5811 26.2372 15.1533 26 15.75 26H23.5V5.5H15.75C15.1533 5.5 14.5811 5.26278 14.1592 4.84082C13.7372 4.41886 13.5 3.84674 13.5 3.25C13.5 2.65326 13.7372 2.08114 14.1592 1.65918C14.5811 1.23722 15.1533 1 15.75 1H25.75ZM15.7539 8.48438C16.0527 8.48697 16.3485 8.54907 16.623 8.66699C16.892 8.78253 17.1349 8.95038 17.3398 9.15918H17.3408L22.3408 14.1592L22.4902 14.3242C22.8182 14.7246 23 15.2279 23 15.75C23 16.2721 22.8182 16.7754 22.4902 17.1758L22.3408 17.3408L17.3408 22.3408L17.3398 22.3398C17.1348 22.5489 16.8922 22.7174 16.623 22.833C16.3485 22.9509 16.0527 23.013 15.7539 23.0156C15.4553 23.0182 15.1592 22.9607 14.8828 22.8477C14.6063 22.7345 14.3548 22.5677 14.1436 22.3564C13.9323 22.1452 13.7655 21.8937 13.6523 21.6172C13.5393 21.3408 13.4818 21.0447 13.4844 20.7461C13.487 20.4473 13.5491 20.1515 13.667 19.877C13.7826 19.6078 13.9502 19.3642 14.1592 19.1592L15.3184 18H3.25C2.65326 18 2.08114 17.7628 1.65918 17.3408C1.23722 16.9189 1 16.3467 1 15.75L1.01074 15.5273C1.06193 15.0124 1.29003 14.5283 1.65918 14.1592C2.08114 13.7372 2.65326 13.5 3.25 13.5H15.3184L14.1592 12.3408V12.3398C13.9504 12.1349 13.7825 11.892 13.667 11.623C13.5491 11.3485 13.487 11.0527 13.4844 10.7539C13.4818 10.4553 13.5393 10.1592 13.6523 9.88281C13.7655 9.60629 13.9323 9.35481 14.1436 9.14355C14.3548 8.9323 14.6063 8.76548 14.8828 8.65234C15.1592 8.53927 15.4553 8.48182 15.7539 8.48438Z" fill="#CCFFB4" stroke="black" stroke-width="2"/>
</svg>
