<svg width="47" height="40" viewBox="0 0 47 40" fill="none" xmlns="http://www.w3.org/2000/svg">
<path d="M22.0832 10.5833C22.0832 14.7715 18.6879 18.1667 14.4998 18.1667C10.3117 18.1667 6.9165 14.7715 6.9165 10.5833C6.9165 6.39517 10.3117 3 14.4998 3C18.6879 3 22.0832 6.39517 22.0832 10.5833Z" fill="#CCFFB4" stroke="black" stroke-width="3" stroke-linecap="round" stroke-linejoin="round"/>
<path d="M14.5 24.6666C7.3203 24.6666 1.5 30.4869 1.5 37.6666H27.5C27.5 30.4869 21.6797 24.6666 14.5 24.6666Z" fill="#CCFFB4" stroke="black" stroke-width="3" stroke-linecap="round" stroke-linejoin="round"/>
<path d="M34.9463 0.5H38.0537C38.1515 0.5 38.2336 0.573687 38.2441 0.670898L38.4463 2.53418C38.4946 2.97879 38.7866 3.3464 39.1865 3.51074L39.1924 3.51367C39.1935 3.51413 39.1952 3.51419 39.1963 3.51465V3.51367C39.5935 3.6765 40.0566 3.62359 40.4033 3.34473L41.8633 2.16992C41.9396 2.10857 42.05 2.11441 42.1191 2.18359L44.3164 4.38184C44.3854 4.45105 44.3913 4.56063 44.3301 4.63672L43.1562 6.0957C42.8763 6.44361 42.8223 6.90935 42.9873 7.30762V7.30664L42.9932 7.32031C43.1588 7.71671 43.5247 8.0057 43.9668 8.05371L45.8291 8.25586C45.9262 8.26637 45.9998 8.34788 46 8.44531V11.5537C46 11.6513 45.9264 11.7335 45.8291 11.7441L43.9668 11.9463C43.5782 11.9884 43.2482 12.2164 43.0615 12.54L42.9912 12.6836L42.9902 12.6846L42.9893 12.6875C42.9887 12.6887 42.9881 12.6904 42.9873 12.6924C42.8224 13.0907 42.8762 13.5564 43.1562 13.9043L44.3301 15.3633C44.3913 15.4394 44.3853 15.549 44.3164 15.6182L42.1182 17.8164C42.049 17.8854 41.9394 17.8913 41.8633 17.8301L40.4033 16.6553C40.0561 16.376 39.592 16.3226 39.1943 16.4863H39.1924L39.1865 16.4893C38.7865 16.6536 38.4946 17.0213 38.4463 17.4658L38.2441 19.3291C38.2336 19.4263 38.1515 19.5 38.0537 19.5H34.9463C34.8485 19.5 34.7664 19.4263 34.7559 19.3291L34.5537 17.4658C34.5054 17.0212 34.2134 16.6536 33.8135 16.4893L33.8076 16.4863C33.8065 16.4859 33.8049 16.4858 33.8037 16.4854H33.8027C33.4555 16.3434 33.0584 16.3669 32.7324 16.5615L32.5967 16.6553L31.1367 17.8301C31.0606 17.8913 30.951 17.8854 30.8818 17.8164L28.6836 15.6182C28.6146 15.549 28.6087 15.4393 28.6699 15.3633L29.8438 13.9043C30.1238 13.5562 30.1779 13.0898 30.0127 12.6914L30.0068 12.6797C29.8412 12.2832 29.4753 11.9943 29.0332 11.9463L27.1709 11.7441C27.0737 11.7336 27 11.6515 27 11.5537V8.44629C27 8.34849 27.0737 8.2664 27.1709 8.25586L29.0332 8.05371C29.4758 8.00572 29.8413 7.71606 30.0068 7.31934L30.0078 7.32031C30.0091 7.31738 30.0099 7.31451 30.0107 7.3125L30.0127 7.30762C30.1777 6.90929 30.1237 6.44364 29.8438 6.0957L28.6699 4.63672C28.6088 4.56067 28.6147 4.45104 28.6836 4.38184L30.8818 2.18359C30.9509 2.11463 31.0606 2.1087 31.1367 2.16992L32.5967 3.34473C32.9438 3.62395 33.4079 3.67737 33.8057 3.51367H33.8076L33.8135 3.51074C34.2134 3.34645 34.5054 2.97882 34.5537 2.53418L34.7559 0.670898C34.7664 0.573672 34.8485 0.5 34.9463 0.5ZM36.5 6.38281C34.5021 6.38285 32.8828 8.00205 32.8828 10C32.8828 11.9979 34.5021 13.6172 36.5 13.6172C38.498 13.6172 40.1182 11.998 40.1182 10C40.1182 8.00203 38.498 6.38281 36.5 6.38281Z" fill="black" stroke="white"/>
</svg>
