<svg width="53" height="53" viewBox="0 0 53 53" fill="none" xmlns="http://www.w3.org/2000/svg">
<path d="M12.9542 42.5674C12.2976 42.5681 11.641 42.555 10.9849 42.5283L10.678 42.4586C9.88524 42.2738 9.16299 41.8633 8.59863 41.2766C8.03427 40.69 7.65198 39.9524 7.49803 39.153L7.44782 38.8964C7.43387 38.6007 7.41992 37.7639 7.41992 37.0358V12.3685C7.42139 12.0171 7.56185 11.6805 7.81062 11.4322C8.05939 11.184 8.39627 11.0443 8.74771 11.0435H38.411C38.7622 11.0443 39.0988 11.1841 39.3471 11.4324C39.5954 11.6807 39.7352 12.0173 39.736 12.3685V16.6336H44.174C44.5464 16.6351 44.9032 16.7837 45.1665 17.047C45.4299 17.3104 45.5785 17.6671 45.5799 18.0395V38.1014C45.5799 39.2851 45.1097 40.4203 44.2727 41.2573C43.4357 42.0943 42.3005 42.5646 41.1168 42.5646L12.9542 42.5674ZM12.9542 39.4738H36.8656C36.723 39.0313 36.6505 38.5692 36.6508 38.1042V32.0399C36.6455 31.9386 36.6427 31.8372 36.6424 31.7358V14.1343H10.5134V37.0358C10.5134 37.6439 10.5218 38.2353 10.5302 38.5533L10.5358 38.5756C10.5774 38.7855 10.6783 38.9791 10.8267 39.1334C10.975 39.2876 11.1645 39.3961 11.3726 39.4459L11.4005 39.4515C11.7715 39.4627 12.3991 39.4738 12.9542 39.4738ZM33.2226 19.0103H13.8078V22.1038H33.2226V19.0103ZM22.0647 25.6576H13.8078V35.51H22.0647V25.6576ZM33.2281 25.7301H25.1972V28.8236H33.2253L33.2281 25.7301ZM33.2281 32.4527H25.1972V35.5435H33.2253L33.2281 32.4527ZM39.7443 19.7244V38.1042C39.7443 38.4682 39.8889 38.8173 40.1463 39.0747C40.4037 39.332 40.7528 39.4766 41.1168 39.4766C41.4808 39.4766 41.8298 39.332 42.0872 39.0747C42.3446 38.8173 42.4892 38.4682 42.4892 38.1042V19.7216L39.7443 19.7244Z" fill="#6782EE" stroke="black" stroke-width="2"/>
</svg>
