<svg width="23" height="30" viewBox="0 0 23 30" fill="none" xmlns="http://www.w3.org/2000/svg">
<circle cx="11.7747" cy="7.74194" r="5.24194" fill="#CCFFB4"/>
<path d="M2.5 27.5001C2.5 20.4033 8.95161 18.0914 12.1774 17.8226C19.2742 18.4678 21.0484 24.5431 21.0484 27.5001H2.5Z" fill="#CCFFB4"/>
<path d="M16.987 7.20566C16.987 10.3568 14.4324 12.9113 11.2813 12.9113C8.13019 12.9113 5.57568 10.3568 5.57568 7.20566C5.57568 4.05451 8.13019 1.5 11.2813 1.5C14.4324 1.5 16.987 4.05451 16.987 7.20566Z" stroke="black" stroke-width="3" stroke-linecap="round" stroke-linejoin="round"/>
<path d="M11.2811 17.8019C5.87917 17.8019 1.5 22.181 1.5 27.583H21.0623C21.0623 22.181 16.6831 17.8019 11.2811 17.8019Z" stroke="black" stroke-width="3" stroke-linecap="round" stroke-linejoin="round"/>
</svg>
