<svg width="17" height="17" viewBox="0 0 17 17" fill="none" xmlns="http://www.w3.org/2000/svg">
<path d="M0.5 15.5667H16.5" stroke="black" stroke-linecap="round" stroke-linejoin="round"/>
<path d="M6.1001 7.56665H2.9001C2.45827 7.56665 2.1001 7.92482 2.1001 8.36665V14.7667C2.1001 15.2085 2.45827 15.5667 2.9001 15.5667H6.1001C6.54193 15.5667 6.9001 15.2085 6.9001 14.7667V8.36665C6.9001 7.92482 6.54193 7.56665 6.1001 7.56665Z" stroke="black" stroke-linejoin="round"/>
<path d="M14.0999 0.5H7.6999C7.25807 0.5 6.8999 0.85503 6.8999 1.29298V14.7737C6.8999 15.2116 7.25807 15.5667 7.6999 15.5667H14.0999C14.5417 15.5667 14.8999 15.2116 14.8999 14.7737V1.29298C14.8999 0.85503 14.5417 0.5 14.0999 0.5Z" stroke="black" stroke-linejoin="round"/>
<path d="M10.1001 11.5667H11.7001" stroke="black" stroke-linecap="round" stroke-linejoin="round"/>
<path d="M3.7002 11.5667H5.3002" stroke="black" stroke-linecap="round" stroke-linejoin="round"/>
<path d="M10.1001 7.96667H11.7001" stroke="black" stroke-linecap="round" stroke-linejoin="round"/>
<path d="M10.1001 4.5H11.7001" stroke="black" stroke-linecap="round" stroke-linejoin="round"/>
</svg>
