<svg width="16" height="16" viewBox="0 0 16 16" fill="none" xmlns="http://www.w3.org/2000/svg">
<path d="M1.33333 8.44118H0.5V4.91176C0.5 3.93714 1.24619 3.14706 2.16667 3.14706H5.5M1.33333 8.44118V13.7353C1.33333 14.7099 2.07952 15.5 3 15.5H13C13.9205 15.5 14.6667 14.7099 14.6667 13.7353V8.44118M1.33333 8.44118H6.33333M5.5 3.14706V2.26471C5.5 1.29009 6.24619 0.5 7.16667 0.5H8.83333C9.75383 0.5 10.5 1.29009 10.5 2.26471V3.14706M5.5 3.14706H10.5M14.6667 8.44118H15.5V4.91176C15.5 3.93714 14.7538 3.14706 13.8333 3.14706H10.5M14.6667 8.44118H9.66667M6.33333 8.44118V6.67647H9.66667V8.44118M6.33333 8.44118V10.2059H9.66667V8.44118" stroke="black" stroke-linecap="round" stroke-linejoin="round"/>
</svg>
