<svg width="242" height="177" viewBox="0 0 242 177" fill="none" xmlns="http://www.w3.org/2000/svg">
<path d="M242 155.545H0V155.664H242V155.545Z" fill="#E0E0E0"/>
<path d="M65.6159 160.576H48.9662V160.695H65.6159V160.576Z" fill="#E0E0E0"/>
<path d="M45.4186 160.633H36.0483V160.752H45.4186V160.633Z" fill="#E0E0E0"/>
<path d="M103.692 160.358H84.7V160.476H103.692V160.358Z" fill="#E0E0E0"/>
<path d="M152.247 158.666H96.2095V158.785H152.247V158.666Z" fill="#E0E0E0"/>
<path d="M200.216 158.728H174.569V158.847H200.216V158.728Z" fill="#E0E0E0"/>
<path d="M114.708 134.356H21.2525C20.5203 134.355 19.8186 134.068 19.3014 133.56C18.7842 133.051 18.4937 132.362 18.4937 131.643V2.68902C18.5 1.97449 18.7933 1.29129 19.3099 0.787805C19.8264 0.284322 20.5245 0.00122402 21.2525 0H114.708C115.441 0 116.144 0.285809 116.662 0.794552C117.18 1.3033 117.472 1.9933 117.472 2.71277V131.643C117.472 132.363 117.18 133.053 116.662 133.561C116.144 134.07 115.441 134.356 114.708 134.356ZM21.2525 0.0950186C20.5524 0.0962771 19.8815 0.370127 19.387 0.85646C18.8924 1.34279 18.6147 2.00187 18.6147 2.68902V131.643C18.6147 132.33 18.8924 132.989 19.387 133.476C19.8815 133.962 20.5524 134.236 21.2525 134.237H114.708C115.408 134.236 116.08 133.962 116.575 133.476C117.071 132.99 117.349 132.331 117.351 131.643V2.68902C117.349 2.00143 117.071 1.34237 116.575 0.85617C116.08 0.369973 115.408 0.0962745 114.708 0.0950186H21.2525Z" fill="#E0E0E0"/>
<path d="M219.402 134.356H125.942C125.209 134.355 124.507 134.068 123.989 133.56C123.471 133.051 123.179 132.362 123.178 131.643V2.68902C123.186 1.97406 123.48 1.29086 123.997 0.787508C124.515 0.284156 125.213 0.00121067 125.942 0H219.402C220.129 0.00247261 220.826 0.286123 221.342 0.789472C221.857 1.29282 222.15 1.97531 222.156 2.68902V131.643C222.156 132.361 221.866 133.049 221.35 133.558C220.834 134.066 220.133 134.353 219.402 134.356ZM125.942 0.0950186C125.241 0.0962745 124.57 0.369973 124.074 0.85617C123.579 1.34237 123.3 2.00143 123.299 2.68902V131.643C123.3 132.331 123.579 132.99 124.074 133.476C124.57 133.962 125.241 134.236 125.942 134.237H219.402C220.103 134.236 220.774 133.962 221.269 133.476C221.765 132.99 222.043 132.331 222.045 131.643V2.68902C222.043 2.00143 221.765 1.34237 221.269 0.85617C220.774 0.369973 220.103 0.0962745 219.402 0.0950186H125.942Z" fill="#E0E0E0"/>
<path d="M103.45 109.086C103.184 109.086 102.918 109.086 102.647 109.109C100.96 109.226 99.321 109.708 97.8465 110.52C96.372 111.332 95.0988 112.454 94.1181 113.806C93.1374 115.158 92.4735 116.706 92.174 118.339C91.8746 119.972 91.9469 121.65 92.3859 123.253C93.6363 128.038 94.24 132.965 94.1816 137.905V152.291C94.1816 152.795 94.3855 153.278 94.7486 153.634C95.1117 153.991 95.6041 154.191 96.1176 154.191H142.64V109.086H103.45Z" fill="#E6E6E6"/>
<path d="M154.081 120.331C154.064 117.422 152.899 114.633 150.832 112.549C148.765 110.465 145.955 109.248 142.993 109.153C140.032 109.058 137.147 110.093 134.946 112.041C132.745 113.989 131.398 116.698 131.188 119.599C131.108 120.83 131.232 122.066 131.556 123.258C132.81 128.043 133.416 132.969 133.357 137.91V152.295C133.357 152.799 133.56 153.283 133.924 153.639C134.287 153.995 134.779 154.196 135.293 154.196H149.982C150.495 154.196 150.988 153.995 151.351 153.639C151.714 153.283 151.918 152.799 151.918 152.295V137.064C151.876 132.431 152.471 127.814 153.689 123.338C153.958 122.358 154.09 121.346 154.081 120.331Z" fill="#F0F0F0"/>
<path d="M126.837 126.802H85.0823V154.181H126.837V126.802Z" fill="#E6E6E6"/>
<path d="M59.2416 82.4806H97.768C98.9103 82.4756 100.042 82.6921 101.099 83.1177C102.156 83.5433 103.117 84.1696 103.926 84.9607C104.735 85.7517 105.378 86.692 105.816 87.7274C106.254 88.7628 106.48 89.873 106.48 90.9942V132.992H50.5732V90.9942C50.5732 88.7371 51.4863 86.5723 53.1118 84.9758C54.7373 83.3794 56.9422 82.4818 59.2416 82.4806Z" fill="#E0E0E0"/>
<path d="M69.7444 82.4806H109.123C110.206 82.4806 111.279 82.6901 112.281 83.0972C113.282 83.5043 114.191 84.101 114.958 84.8531C115.724 85.6053 116.332 86.4983 116.747 87.4811C117.161 88.4638 117.375 89.5172 117.375 90.5809V132.988H61.468V90.5857C61.4673 89.5195 61.6811 88.4637 62.097 87.4789C62.513 86.494 63.1229 85.5994 63.8918 84.8464C64.6607 84.0934 65.5735 83.4968 66.5778 83.0908C67.5821 82.6849 68.6582 82.4775 69.7444 82.4806Z" fill="#F0F0F0"/>
<path d="M87.8121 124.303H126.3C126.967 124.303 127.607 124.563 128.079 125.026C128.551 125.49 128.817 126.118 128.817 126.773V132.983C128.817 133.638 128.551 134.266 128.079 134.73C127.607 135.193 126.967 135.453 126.3 135.453H87.8121C87.6132 135.453 87.4224 135.376 87.2817 135.238C87.141 135.099 87.062 134.912 87.062 134.717V125.039C87.062 124.844 87.141 124.657 87.2817 124.519C87.4224 124.38 87.6132 124.303 87.8121 124.303Z" fill="#E0E0E0"/>
<path d="M46.464 109.086C46.1978 109.086 45.9316 109.086 45.6606 109.109C43.9741 109.226 42.3349 109.708 40.8604 110.52C39.3859 111.332 38.1127 112.454 37.132 113.806C36.1512 115.158 35.4874 116.706 35.1879 118.339C34.8884 119.972 34.9608 121.65 35.3998 123.253C36.6501 128.038 37.2538 132.965 37.1954 137.905V152.291C37.1954 152.795 37.3994 153.278 37.7625 153.634C38.1255 153.991 38.618 154.191 39.1314 154.191H85.6487V109.086H46.464Z" fill="#E6E6E6"/>
<path d="M97.0855 120.331C97.0681 117.422 95.9036 114.633 93.8362 112.549C91.7689 110.465 88.9595 109.248 85.9976 109.153C83.0357 109.058 80.1515 110.093 77.9505 112.041C75.7494 113.989 74.4024 116.698 74.1923 119.599C74.1119 120.83 74.2361 122.066 74.5602 123.258C75.8145 128.043 76.4199 132.969 76.3607 137.91V152.295C76.3607 152.799 76.5646 153.283 76.9277 153.639C77.2908 153.995 77.7832 154.196 78.2967 154.196H92.9861C93.4995 154.196 93.9919 153.995 94.355 153.639C94.7181 153.283 94.9221 152.799 94.9221 152.295V137.064C94.8797 132.431 95.4756 127.814 96.6935 123.338C96.962 122.358 97.0939 121.346 97.0855 120.331Z" fill="#F0F0F0"/>
<path d="M141.812 155.55H47.2723C46.9026 155.55 46.548 155.405 46.2866 155.149C46.0252 154.892 45.8784 154.544 45.8784 154.181H143.201C143.201 154.543 143.055 154.891 142.795 155.147C142.534 155.404 142.181 155.548 141.812 155.55Z" fill="#E0E0E0"/>
<path d="M69.3766 22.0727H41.5611V50.3692H69.3766V22.0727Z" fill="#E0E0E0"/>
<path d="M70.9641 22.0727H43.8456V50.3692H70.9641V22.0727Z" fill="#F0F0F0"/>
<path d="M68.6893 48.1363V24.3009H46.1155V48.1363H68.6893Z" fill="#FAFAFA"/>
<path d="M57.4024 30.1968L51.2314 40.6916H63.5782L57.4024 30.1968Z" fill="#F0F0F0"/>
<path d="M106.456 33.988H78.6403V62.2845H106.456V33.988Z" fill="#E0E0E0"/>
<path d="M108.039 33.988H80.92V62.2845H108.039V33.988Z" fill="#F0F0F0"/>
<path d="M105.764 60.0563V36.2209H83.1899V60.0563H105.764Z" fill="#FAFAFA"/>
<path d="M97.2453 52.3883L99.9218 47.8369C100.201 47.3606 100.348 46.8206 100.347 46.2711C100.347 45.7217 100.199 45.182 99.919 44.7061C99.6392 44.2302 99.2368 43.8349 98.7522 43.5597C98.2677 43.2846 97.718 43.1392 97.1582 43.1383H91.8003C91.2404 43.1386 90.6904 43.2837 90.2056 43.5588C89.7209 43.834 89.3185 44.2296 89.0389 44.7058C88.7593 45.182 88.6123 45.7221 88.6128 46.2717C88.6133 46.8213 88.7611 47.3612 89.0415 47.8369L91.718 52.3883C91.9978 52.8649 92.4005 53.2607 92.8857 53.536C93.3708 53.8112 93.9213 53.9561 94.4817 53.9561C95.042 53.9561 95.5925 53.8112 96.0777 53.536C96.5628 53.2607 96.9656 52.8649 97.2453 52.3883Z" fill="#F0F0F0"/>
<path d="M170.886 88.1057H163.282V153.293H170.886V88.1057Z" fill="#E6E6E6"/>
<path d="M207.399 153.293H165.286V155.54H207.399V153.293Z" fill="#E6E6E6"/>
<path d="M170.881 153.298H209.403V88.1104H170.881V153.298Z" fill="#F0F0F0"/>
<path d="M174.99 133.691H205.298V122.051H174.99V133.691Z" fill="#E6E6E6"/>
<path d="M174.99 148.927H205.298V137.287H174.99V148.927Z" fill="#E6E6E6"/>
<path d="M194.529 127.073H185.754C185.329 127.073 184.985 127.411 184.985 127.828V127.914C184.985 128.331 185.329 128.669 185.754 128.669H194.529C194.954 128.669 195.299 128.331 195.299 127.914V127.828C195.299 127.411 194.954 127.073 194.529 127.073Z" fill="#F0F0F0"/>
<path d="M194.529 142.309H185.754C185.329 142.309 184.985 142.647 184.985 143.064V143.15C184.985 143.567 185.329 143.905 185.754 143.905H194.529C194.954 143.905 195.299 143.567 195.299 143.15V143.064C195.299 142.647 194.954 142.309 194.529 142.309Z" fill="#F0F0F0"/>
<path d="M174.99 103.342H205.298V91.7021H174.99V103.342Z" fill="#E6E6E6"/>
<path d="M174.99 118.459H205.298V106.82H174.99V118.459Z" fill="#E6E6E6"/>
<path d="M194.529 96.7238H185.754C185.329 96.7238 184.985 97.062 184.985 97.4792V97.5647C184.985 97.9819 185.329 98.3201 185.754 98.3201H194.529C194.954 98.3201 195.299 97.9819 195.299 97.5647V97.4792C195.299 97.062 194.954 96.7238 194.529 96.7238Z" fill="#F0F0F0"/>
<path d="M194.529 111.836H185.754C185.329 111.836 184.985 112.175 184.985 112.592V112.677C184.985 113.095 185.329 113.433 185.754 113.433H194.529C194.954 113.433 195.299 113.095 195.299 112.677V112.592C195.299 112.175 194.954 111.836 194.529 111.836Z" fill="#F0F0F0"/>
<path d="M199.49 69.2731H192.351C192.351 69.2731 193.59 73.4729 193.59 75.9243C193.59 78.3758 188.16 88.0867 195.923 88.0867C203.687 88.0867 198.251 78.3996 198.251 75.9243C198.251 73.4491 199.49 69.2731 199.49 69.2731Z" fill="#F0F0F0"/>
<path d="M180.91 74.9171C180.905 75.5739 180.702 76.2145 180.327 76.7583C179.952 77.302 179.421 77.7246 178.801 77.9726C178.182 78.2207 177.501 78.2832 176.846 78.1522C176.19 78.0212 175.589 77.7026 175.117 77.2366C174.646 76.7706 174.326 76.178 174.197 75.5335C174.068 74.889 174.137 74.2216 174.394 73.6153C174.651 73.009 175.085 72.491 175.642 72.1266C176.198 71.7622 176.852 71.5678 177.522 71.5677C178.422 71.574 179.284 71.9297 179.919 72.5571C180.553 73.1846 180.91 74.0329 180.91 74.9171Z" fill="#F0F0F0"/>
<path d="M186.751 76.5135C186.751 77.1759 186.551 77.8235 186.176 78.3743C185.801 78.9251 185.268 79.3544 184.645 79.6079C184.021 79.8614 183.335 79.9277 182.674 79.7985C182.012 79.6693 181.404 79.3503 180.926 78.8818C180.449 78.4134 180.124 77.8166 179.993 77.1669C179.861 76.5172 179.928 75.8437 180.187 75.2317C180.445 74.6197 180.882 74.0966 181.443 73.7285C182.005 73.3605 182.664 73.1641 183.339 73.1641C184.244 73.1641 185.112 73.5169 185.752 74.1451C186.392 74.7732 186.751 75.6251 186.751 76.5135Z" fill="#F0F0F0"/>
<path d="M191.741 75.2212C191.741 75.8837 191.541 76.5312 191.166 77.082C190.791 77.6328 190.258 78.0621 189.635 78.3156C189.011 78.5691 188.325 78.6355 187.664 78.5062C187.002 78.377 186.394 78.058 185.916 77.5896C185.439 77.1212 185.114 76.5244 184.983 75.8746C184.851 75.2249 184.918 74.5515 185.177 73.9394C185.435 73.3274 185.872 72.8043 186.433 72.4363C186.995 72.0683 187.654 71.8718 188.329 71.8718C189.234 71.8718 190.102 72.2247 190.742 72.8528C191.382 73.481 191.741 74.3329 191.741 75.2212Z" fill="#F0F0F0"/>
<path d="M171.389 76.5752V80.3759C171.389 84.6138 175.566 88.0819 180.668 88.0819H185.275C190.381 88.0819 194.558 84.6138 194.558 80.3759V76.5752H171.389Z" fill="#E6E6E6"/>
<path d="M156.506 57.011C153.935 57.011 151.469 56.0084 149.651 54.2238C147.833 52.4392 146.812 50.0187 146.812 47.4949C146.812 44.9711 147.833 42.5506 149.651 40.766C151.469 38.9814 153.935 37.9788 156.506 37.9788H157.697V57.011H156.506Z" fill="#E0E0E0"/>
<path d="M167.141 49.6727C168.361 44.5554 165.123 39.4362 159.91 38.2388C154.697 37.0413 149.482 40.2191 148.262 45.3364C147.042 50.4538 150.279 55.5729 155.492 56.7704C160.706 57.9678 165.921 54.7901 167.141 49.6727Z" fill="#F0F0F0"/>
<path d="M158.132 48.6874C157.812 48.6874 157.504 48.5622 157.277 48.3395C157.05 48.1167 156.922 47.8146 156.922 47.4996C156.922 47.1846 157.05 46.8825 157.277 46.6598C157.504 46.437 157.812 46.3119 158.132 46.3119C160.907 46.3094 163.568 45.2266 165.531 43.301C167.493 41.3754 168.598 38.7643 168.601 36.0404V20.2436C168.601 19.9286 168.729 19.6265 168.956 19.4038C169.183 19.181 169.49 19.0559 169.811 19.0559C170.132 19.0559 170.44 19.181 170.667 19.4038C170.894 19.6265 171.021 19.9286 171.021 20.2436V36.0404C171.016 39.3939 169.657 42.6085 167.24 44.9793C164.824 47.3501 161.549 48.6836 158.132 48.6874Z" fill="#E0E0E0"/>
<path d="M181.253 36.0072H158.37L160.925 15.4262H178.698L181.253 36.0072Z" fill="#F0F0F0"/>
<path d="M121 177C172.828 177 214.843 174.592 214.843 171.622C214.843 168.652 172.828 166.244 121 166.244C69.1721 166.244 27.1572 168.652 27.1572 171.622C27.1572 174.592 69.1721 177 121 177Z" fill="#F5F5F5"/>
<path d="M194.224 129.078L193.397 122.764C193.272 121.824 192.804 120.961 192.079 120.335C191.354 119.709 190.422 119.363 189.457 119.362H168.016C167.051 119.363 166.118 119.018 165.393 118.393C164.668 117.768 164.2 116.905 164.076 115.965L159.628 82.1005C159.555 81.5513 159.602 80.9931 159.767 80.4633C159.931 79.9335 160.209 79.4442 160.581 79.0282C160.954 78.6122 161.412 78.279 161.927 78.051C162.441 77.823 162.999 77.7053 163.563 77.7059H182.952C183.516 77.7058 184.074 77.5876 184.589 77.359C185.103 77.1304 185.561 76.7968 185.934 76.3805C186.306 75.9641 186.584 75.4745 186.748 74.9445C186.913 74.4144 186.96 73.856 186.887 73.3066L186.064 66.9879C185.941 66.0482 185.472 65.185 184.747 64.5598C184.022 63.9345 183.09 63.5901 182.124 63.591H160.688C159.723 63.5905 158.791 63.2449 158.067 62.6188C157.343 61.9927 156.875 61.129 156.753 60.1893L152.629 28.8333C152.506 27.8932 152.038 27.0294 151.313 26.4034C150.588 25.7774 149.655 25.4319 148.69 25.4316H142.32C141.756 25.4318 141.197 25.5501 140.683 25.7786C140.169 26.0071 139.71 26.3407 139.337 26.7569C138.964 27.1732 138.686 27.6627 138.521 28.1927C138.356 28.7228 138.308 29.2813 138.38 29.831L142.252 59.1821C142.325 59.7318 142.277 60.2903 142.112 60.8204C141.947 61.3504 141.669 61.8399 141.296 62.2562C140.923 62.6724 140.464 63.006 139.95 63.2345C139.435 63.463 138.877 63.5813 138.313 63.5815H86.394C85.4289 63.581 84.497 63.2354 83.7728 62.6093C83.0485 61.9832 82.5815 61.1195 82.4591 60.1798L78.3354 28.8238C78.213 27.8841 77.746 27.0204 77.0217 26.3943C76.2974 25.7682 75.3656 25.4226 74.4005 25.4221H68.031C67.4664 25.4223 66.9083 25.5406 66.3939 25.7691C65.8795 25.9976 65.4206 26.3311 65.0478 26.7474C64.675 27.1637 64.3969 27.6532 64.232 28.1832C64.067 28.7133 64.0191 29.2718 64.0913 29.8215L67.9633 59.1726C68.0355 59.7223 67.9875 60.2808 67.8226 60.8109C67.6577 61.3409 67.3795 61.8304 67.0067 62.2467C66.6339 62.6629 66.1751 62.9964 65.6607 63.225C65.1463 63.4535 64.5881 63.5718 64.0235 63.572H44.62C44.0555 63.5715 43.4975 63.6891 42.9831 63.9171C42.4687 64.1451 42.0098 64.4782 41.6369 64.8941C41.264 65.31 40.9858 65.7992 40.8208 66.329C40.6559 66.8588 40.6079 67.4171 40.6802 67.9666L41.5127 74.2805C41.6352 75.221 42.1029 76.0854 42.8282 76.7116C43.5535 77.3378 44.4865 77.6829 45.4524 77.6822H66.8888C67.854 77.6813 68.7864 78.0257 69.5116 78.651C70.2368 79.2762 70.705 80.1394 70.8286 81.0791L75.2814 114.944C75.3536 115.493 75.3057 116.051 75.1407 116.581C74.9757 117.111 74.6975 117.6 74.3247 118.016C73.9518 118.432 73.4928 118.765 72.9784 118.993C72.464 119.221 71.906 119.339 71.3416 119.338H51.9526C51.3879 119.338 50.8298 119.457 50.3154 119.685C49.801 119.914 49.3421 120.247 48.9693 120.663C48.5965 121.08 48.3184 121.569 48.1535 122.099C47.9885 122.629 47.9406 123.188 48.0128 123.738L48.8453 130.051C48.9677 130.991 49.4347 131.855 50.159 132.481C50.8832 133.107 51.8151 133.453 52.7802 133.453H74.2214C75.1866 133.452 76.119 133.797 76.8442 134.422C77.5694 135.047 78.0376 135.91 78.1612 136.85L82.28 168.206C82.4035 169.146 82.8715 170.01 83.5966 170.636C84.3216 171.262 85.2541 171.607 86.2198 171.608H92.5892C93.1538 171.608 93.7119 171.489 94.2263 171.261C94.7407 171.032 95.1996 170.699 95.5724 170.282C95.9452 169.866 96.2233 169.377 96.3883 168.847C96.5532 168.317 96.6012 167.758 96.529 167.208L92.657 137.857C92.5905 137.31 92.6432 136.755 92.8114 136.229C92.9797 135.703 93.2597 135.218 93.633 134.807C94.0063 134.395 94.4643 134.066 94.9769 133.84C95.4895 133.615 96.0449 133.499 96.6064 133.501H148.511C149.474 133.497 150.406 133.837 151.132 134.457C151.859 135.078 152.331 135.937 152.46 136.874L156.579 168.23C156.702 169.17 157.17 170.034 157.895 170.66C158.62 171.286 159.553 171.631 160.519 171.631H166.888C167.453 171.631 168.01 171.513 168.525 171.285C169.039 171.056 169.497 170.722 169.87 170.306C170.242 169.89 170.52 169.4 170.684 168.87C170.849 168.34 170.896 167.782 170.823 167.232L166.951 137.881C166.879 137.332 166.927 136.773 167.092 136.243C167.257 135.714 167.535 135.224 167.908 134.808C168.281 134.393 168.739 134.06 169.254 133.832C169.768 133.604 170.326 133.486 170.891 133.486H190.28C190.846 133.487 191.405 133.369 191.921 133.14C192.437 132.911 192.897 132.577 193.27 132.16C193.644 131.742 193.922 131.251 194.087 130.72C194.251 130.188 194.298 129.628 194.224 129.078ZM89.7868 115.965L85.3389 82.1005C85.2667 81.5515 85.3145 80.9936 85.4792 80.4641C85.6439 79.9346 85.9216 79.4456 86.294 79.0298C86.6663 78.614 87.1247 78.2808 87.6385 78.0525C88.1523 77.8243 88.7098 77.7061 89.2738 77.7059H141.178C142.143 77.7051 143.076 78.0495 143.801 78.6747C144.526 79.3 144.994 80.1632 145.118 81.1028L149.556 114.972C149.628 115.522 149.58 116.08 149.415 116.61C149.25 117.139 148.972 117.629 148.599 118.045C148.226 118.46 147.767 118.794 147.253 119.022C146.739 119.25 146.181 119.367 145.616 119.367H93.7266C92.761 119.366 91.8285 119.021 91.1034 118.395C90.3783 117.769 89.9103 116.905 89.7868 115.965Z" fill="#FF6C6C"/>
<path opacity="0.4" d="M194.224 129.078L193.397 122.764C193.272 121.824 192.804 120.961 192.079 120.335C191.354 119.709 190.422 119.363 189.457 119.362H168.016C167.051 119.363 166.118 119.018 165.393 118.393C164.668 117.768 164.2 116.905 164.076 115.965L159.628 82.1005C159.555 81.5513 159.602 80.9931 159.767 80.4633C159.931 79.9335 160.209 79.4442 160.581 79.0282C160.954 78.6122 161.412 78.279 161.927 78.051C162.441 77.823 162.999 77.7053 163.563 77.7059H182.952C183.516 77.7058 184.074 77.5876 184.589 77.359C185.103 77.1304 185.561 76.7968 185.934 76.3805C186.306 75.9641 186.584 75.4745 186.748 74.9445C186.913 74.4144 186.96 73.856 186.887 73.3066L186.064 66.9879C185.941 66.0482 185.472 65.185 184.747 64.5598C184.022 63.9345 183.09 63.5901 182.124 63.591H160.688C159.723 63.5905 158.791 63.2449 158.067 62.6188C157.343 61.9927 156.875 61.129 156.753 60.1893L152.629 28.8333C152.506 27.8932 152.038 27.0294 151.313 26.4034C150.588 25.7774 149.655 25.4319 148.69 25.4316H142.32C141.756 25.4318 141.197 25.5501 140.683 25.7786C140.169 26.0071 139.71 26.3407 139.337 26.7569C138.964 27.1732 138.686 27.6627 138.521 28.1927C138.356 28.7228 138.308 29.2813 138.38 29.831L142.252 59.1821C142.325 59.7318 142.277 60.2903 142.112 60.8204C141.947 61.3504 141.669 61.8399 141.296 62.2562C140.923 62.6724 140.464 63.006 139.95 63.2345C139.435 63.463 138.877 63.5813 138.313 63.5815H86.394C85.4289 63.581 84.497 63.2354 83.7728 62.6093C83.0485 61.9832 82.5815 61.1195 82.4591 60.1798L78.3354 28.8238C78.213 27.8841 77.746 27.0204 77.0217 26.3943C76.2974 25.7682 75.3656 25.4226 74.4005 25.4221H68.031C67.4664 25.4223 66.9083 25.5406 66.3939 25.7691C65.8795 25.9976 65.4206 26.3311 65.0478 26.7474C64.675 27.1637 64.3969 27.6532 64.232 28.1832C64.067 28.7133 64.0191 29.2718 64.0913 29.8215L67.9633 59.1726C68.0355 59.7223 67.9875 60.2808 67.8226 60.8109C67.6577 61.3409 67.3795 61.8304 67.0067 62.2467C66.6339 62.6629 66.1751 62.9964 65.6607 63.225C65.1463 63.4535 64.5881 63.5718 64.0235 63.572H44.62C44.0555 63.5715 43.4975 63.6891 42.9831 63.9171C42.4687 64.1451 42.0098 64.4782 41.6369 64.8941C41.264 65.31 40.9858 65.7992 40.8208 66.329C40.6559 66.8588 40.6079 67.4171 40.6802 67.9666L41.5127 74.2805C41.6352 75.221 42.1029 76.0854 42.8282 76.7116C43.5535 77.3378 44.4865 77.6829 45.4524 77.6822H66.8888C67.854 77.6813 68.7864 78.0257 69.5116 78.651C70.2368 79.2762 70.705 80.1394 70.8286 81.0791L75.2814 114.944C75.3536 115.493 75.3057 116.051 75.1407 116.581C74.9757 117.111 74.6975 117.6 74.3247 118.016C73.9518 118.432 73.4928 118.765 72.9784 118.993C72.464 119.221 71.906 119.339 71.3416 119.338H51.9526C51.3879 119.338 50.8298 119.457 50.3154 119.685C49.801 119.914 49.3421 120.247 48.9693 120.663C48.5965 121.08 48.3184 121.569 48.1535 122.099C47.9885 122.629 47.9406 123.188 48.0128 123.738L48.8453 130.051C48.9677 130.991 49.4347 131.855 50.159 132.481C50.8832 133.107 51.8151 133.453 52.7802 133.453H74.2214C75.1866 133.452 76.119 133.797 76.8442 134.422C77.5694 135.047 78.0376 135.91 78.1612 136.85L82.28 168.206C82.4035 169.146 82.8715 170.01 83.5966 170.636C84.3216 171.262 85.2541 171.607 86.2198 171.608H92.5892C93.1538 171.608 93.7119 171.489 94.2263 171.261C94.7407 171.032 95.1996 170.699 95.5724 170.282C95.9452 169.866 96.2233 169.377 96.3883 168.847C96.5532 168.317 96.6012 167.758 96.529 167.208L92.657 137.857C92.5905 137.31 92.6432 136.755 92.8114 136.229C92.9797 135.703 93.2597 135.218 93.633 134.807C94.0063 134.395 94.4643 134.066 94.9769 133.84C95.4895 133.615 96.0449 133.499 96.6064 133.501H148.511C149.474 133.497 150.406 133.837 151.132 134.457C151.859 135.078 152.331 135.937 152.46 136.874L156.579 168.23C156.702 169.17 157.17 170.034 157.895 170.66C158.62 171.286 159.553 171.631 160.519 171.631H166.888C167.453 171.631 168.01 171.513 168.525 171.285C169.039 171.056 169.497 170.722 169.87 170.306C170.242 169.89 170.52 169.4 170.684 168.87C170.849 168.34 170.896 167.782 170.823 167.232L166.951 137.881C166.879 137.332 166.927 136.773 167.092 136.243C167.257 135.714 167.535 135.224 167.908 134.808C168.281 134.393 168.739 134.06 169.254 133.832C169.768 133.604 170.326 133.486 170.891 133.486H190.28C190.846 133.487 191.405 133.369 191.921 133.14C192.437 132.911 192.897 132.577 193.27 132.16C193.644 131.742 193.922 131.251 194.087 130.72C194.251 130.188 194.298 129.628 194.224 129.078ZM89.7868 115.965L85.3389 82.1005C85.2667 81.5515 85.3145 80.9936 85.4792 80.4641C85.6439 79.9346 85.9216 79.4456 86.294 79.0298C86.6663 78.614 87.1247 78.2808 87.6385 78.0525C88.1523 77.8243 88.7098 77.7061 89.2738 77.7059H141.178C142.143 77.7051 143.076 78.0495 143.801 78.6747C144.526 79.3 144.994 80.1632 145.118 81.1028L149.556 114.972C149.628 115.522 149.58 116.08 149.415 116.61C149.25 117.139 148.972 117.629 148.599 118.045C148.226 118.46 147.767 118.794 147.253 119.022C146.739 119.25 146.181 119.367 145.616 119.367H93.7266C92.761 119.366 91.8285 119.021 91.1034 118.395C90.3783 117.769 89.9103 116.905 89.7868 115.965Z" fill="black"/>
<path d="M102.826 151.891L102.342 148.281L102.826 148.219L103.31 151.83L102.826 151.891ZM170.731 103.337L169.027 90.3909L169.511 90.3339L171.21 103.275L170.731 103.337ZM90.2321 56.094L89.54 50.8965L90.024 50.8348L90.7113 56.0608L90.2321 56.094ZM89.1286 47.6992L87.967 38.8767L88.451 38.815L89.6077 47.6374L89.1286 47.6992Z" fill="#FF6C6C"/>
<path opacity="0.3" d="M102.826 151.891L102.342 148.281L102.826 148.219L103.31 151.83L102.826 151.891ZM170.731 103.337L169.027 90.3909L169.511 90.3339L171.21 103.275L170.731 103.337ZM90.2321 56.094L89.54 50.8965L90.024 50.8348L90.7113 56.0608L90.2321 56.094ZM89.1286 47.6992L87.967 38.8767L88.451 38.815L89.6077 47.6374L89.1286 47.6992Z" fill="black"/>
<path d="M201.344 129.078L200.512 122.764C200.388 121.824 199.92 120.96 199.195 120.334C198.47 119.708 197.537 119.362 196.572 119.362H175.131C174.166 119.362 173.235 119.017 172.511 118.392C171.787 117.767 171.319 116.904 171.196 115.965L166.743 82.1007C166.671 81.5514 166.72 80.9934 166.885 80.4639C167.05 79.9344 167.329 79.4456 167.701 79.0298C168.074 78.6141 168.533 78.281 169.047 78.0528C169.561 77.8246 170.118 77.7064 170.683 77.7061H190.072C190.636 77.7059 191.194 77.5877 191.709 77.3591C192.223 77.1306 192.682 76.7971 193.055 76.3808C193.428 75.9646 193.706 75.4751 193.871 74.945C194.036 74.4149 194.084 73.8565 194.011 73.3068L193.155 66.9881C193.032 66.0488 192.565 65.1857 191.841 64.5603C191.116 63.935 190.184 63.5904 189.22 63.5912H167.779C166.813 63.5909 165.88 63.2454 165.155 62.6194C164.43 61.9934 163.962 61.1296 163.839 60.1895L159.72 28.8335C159.597 27.8934 159.129 27.0296 158.403 26.4036C157.678 25.7776 156.746 25.4321 155.78 25.4318H149.411C148.846 25.432 148.288 25.5503 147.774 25.7788C147.259 26.0073 146.8 26.3408 146.428 26.7571C146.055 27.1734 145.777 27.6629 145.612 28.1929C145.447 28.723 145.399 29.2815 145.471 29.8312L149.343 59.1823C149.415 59.732 149.367 60.2905 149.202 60.8205C149.037 61.3506 148.759 61.8401 148.387 62.2564C148.014 62.6726 147.555 63.0061 147.04 63.2347C146.526 63.4632 145.968 63.5815 145.403 63.5817H93.4895C92.5243 63.5841 91.5913 63.2417 90.8645 62.6184C90.1378 61.995 89.667 61.1334 89.54 60.1943L85.4212 28.8382C85.2977 27.8981 84.8297 27.0344 84.1046 26.4083C83.3795 25.7823 82.4471 25.4369 81.4814 25.4366H75.1217C74.5572 25.4367 73.9992 25.5549 73.485 25.7835C72.9708 26.0121 72.5122 26.3457 72.1398 26.762C71.7674 27.1784 71.4897 27.668 71.3254 28.198C71.161 28.7281 71.1138 29.2865 71.1867 29.8359L75.0587 59.1871C75.1309 59.7368 75.083 60.2952 74.918 60.8253C74.7531 61.3554 74.475 61.8448 74.1022 62.2611C73.7294 62.6774 73.2705 63.0109 72.7561 63.2394C72.2417 63.4679 71.6836 63.5862 71.119 63.5864H51.7154C51.151 63.5859 50.593 63.7036 50.0786 63.9315C49.5642 64.1595 49.1052 64.4926 48.7323 64.9085C48.3595 65.3244 48.0813 65.8136 47.9163 66.3434C47.7513 66.8733 47.7034 67.4315 47.7757 67.981L48.6033 74.295C48.7268 75.235 49.1948 76.0988 49.9199 76.7248C50.6449 77.3509 51.5774 77.6963 52.5431 77.6966H73.9843C74.9494 77.6957 75.8819 78.0402 76.6071 78.6654C77.3322 79.2907 77.8004 80.1539 77.924 81.0935L82.372 114.972C82.445 115.521 82.3977 116.08 82.2334 116.609C82.069 117.139 81.7912 117.629 81.4187 118.045C81.0462 118.461 80.5876 118.794 80.0734 119.022C79.5592 119.25 79.0013 119.367 78.4371 119.367H59.048C58.4835 119.367 57.9256 119.485 57.4114 119.714C56.8972 119.942 56.4386 120.276 56.0662 120.692C55.6937 121.109 55.4161 121.598 55.2517 122.128C55.0874 122.658 55.0401 123.217 55.1131 123.766L55.9407 130.08C56.0642 131.02 56.5322 131.884 57.2573 132.51C57.9824 133.136 58.9149 133.482 59.8805 133.482H81.312C82.2767 133.481 83.2085 133.826 83.9329 134.451C84.6572 135.076 85.1244 135.939 85.2469 136.879L89.3706 168.235C89.4941 169.175 89.9621 170.039 90.6872 170.665C91.4122 171.291 92.3447 171.636 93.3104 171.636H99.704C100.269 171.636 100.827 171.518 101.341 171.289C101.856 171.061 102.314 170.727 102.687 170.311C103.06 169.895 103.338 169.405 103.503 168.875C103.668 168.345 103.716 167.787 103.644 167.237L99.7718 137.886C99.6995 137.336 99.7475 136.778 99.9124 136.248C100.077 135.719 100.356 135.229 100.728 134.813C101.101 134.398 101.56 134.064 102.075 133.836C102.589 133.608 103.147 133.491 103.712 133.491H155.606C156.57 133.492 157.502 133.837 158.226 134.462C158.95 135.087 159.417 135.949 159.541 136.888L163.665 168.244C163.787 169.184 164.254 170.048 164.978 170.674C165.703 171.3 166.634 171.645 167.6 171.646H173.969C174.534 171.646 175.092 171.527 175.606 171.299C176.121 171.07 176.579 170.737 176.952 170.321C177.325 169.904 177.603 169.415 177.768 168.885C177.933 168.355 177.981 167.796 177.909 167.247L174.037 137.895C173.965 137.346 174.012 136.789 174.177 136.259C174.342 135.73 174.619 135.241 174.992 134.825C175.364 134.409 175.823 134.076 176.336 133.847C176.85 133.619 177.408 133.501 177.972 133.501H197.366C197.936 133.507 198.501 133.392 199.022 133.164C199.543 132.937 200.008 132.602 200.385 132.182C200.762 131.763 201.043 131.268 201.209 130.732C201.374 130.197 201.42 129.632 201.344 129.078ZM96.9065 115.965L92.444 82.1007C92.3725 81.5514 92.4211 80.9934 92.5863 80.4639C92.7516 79.9344 93.0299 79.4456 93.4026 79.0298C93.7753 78.6141 94.2339 78.281 94.7479 78.0528C95.262 77.8246 95.8196 77.7064 96.3838 77.7061H148.273C149.238 77.7063 150.17 78.051 150.895 78.6761C151.62 79.3012 152.089 80.1638 152.213 81.103L156.661 114.972C156.733 115.521 156.686 116.079 156.521 116.609C156.356 117.138 156.078 117.627 155.706 118.043C155.334 118.459 154.875 118.792 154.362 119.02C153.848 119.249 153.29 119.367 152.726 119.367H100.822C99.8561 119.368 98.9231 119.023 98.1978 118.396C97.4725 117.77 97.0048 116.906 96.8823 115.965H96.9065Z" fill="#FF6C6C"/>
<path opacity="0.3" d="M201.344 129.078L200.512 122.764C200.388 121.824 199.92 120.96 199.195 120.334C198.47 119.708 197.537 119.362 196.572 119.362H175.131C174.166 119.362 173.235 119.017 172.511 118.392C171.787 117.767 171.319 116.904 171.196 115.965L166.743 82.1007C166.671 81.5514 166.72 80.9934 166.885 80.4639C167.05 79.9344 167.329 79.4456 167.701 79.0298C168.074 78.6141 168.533 78.281 169.047 78.0528C169.561 77.8246 170.118 77.7064 170.683 77.7061H190.072C190.636 77.7059 191.194 77.5877 191.709 77.3591C192.223 77.1306 192.682 76.7971 193.055 76.3808C193.428 75.9646 193.706 75.4751 193.871 74.945C194.036 74.4149 194.084 73.8565 194.011 73.3068L193.155 66.9881C193.032 66.0488 192.565 65.1857 191.841 64.5603C191.116 63.935 190.184 63.5904 189.22 63.5912H167.779C166.813 63.5909 165.88 63.2454 165.155 62.6194C164.43 61.9934 163.962 61.1296 163.839 60.1895L159.72 28.8335C159.597 27.8934 159.129 27.0296 158.403 26.4036C157.678 25.7776 156.746 25.4321 155.78 25.4318H149.411C148.846 25.432 148.288 25.5503 147.774 25.7788C147.259 26.0073 146.8 26.3408 146.428 26.7571C146.055 27.1734 145.777 27.6629 145.612 28.1929C145.447 28.723 145.399 29.2815 145.471 29.8312L149.343 59.1823C149.415 59.732 149.367 60.2905 149.202 60.8205C149.037 61.3506 148.759 61.8401 148.387 62.2564C148.014 62.6726 147.555 63.0061 147.04 63.2347C146.526 63.4632 145.968 63.5815 145.403 63.5817H93.4895C92.5243 63.5841 91.5913 63.2417 90.8645 62.6184C90.1378 61.995 89.667 61.1334 89.54 60.1943L85.4212 28.8382C85.2977 27.8981 84.8297 27.0344 84.1046 26.4083C83.3795 25.7823 82.4471 25.4369 81.4814 25.4366H75.1217C74.5572 25.4367 73.9992 25.5549 73.485 25.7835C72.9708 26.0121 72.5122 26.3457 72.1398 26.762C71.7674 27.1784 71.4897 27.668 71.3254 28.198C71.161 28.7281 71.1138 29.2865 71.1867 29.8359L75.0587 59.1871C75.1309 59.7368 75.083 60.2952 74.918 60.8253C74.7531 61.3554 74.475 61.8448 74.1022 62.2611C73.7294 62.6774 73.2705 63.0109 72.7561 63.2394C72.2417 63.4679 71.6836 63.5862 71.119 63.5864H51.7154C51.151 63.5859 50.593 63.7036 50.0786 63.9315C49.5642 64.1595 49.1052 64.4926 48.7323 64.9085C48.3595 65.3244 48.0813 65.8136 47.9163 66.3434C47.7513 66.8733 47.7034 67.4315 47.7757 67.981L48.6033 74.295C48.7268 75.235 49.1948 76.0988 49.9199 76.7248C50.6449 77.3509 51.5774 77.6963 52.5431 77.6966H73.9843C74.9494 77.6957 75.8819 78.0402 76.6071 78.6654C77.3322 79.2907 77.8004 80.1539 77.924 81.0935L82.372 114.972C82.445 115.521 82.3977 116.08 82.2334 116.609C82.069 117.139 81.7912 117.629 81.4187 118.045C81.0462 118.461 80.5876 118.794 80.0734 119.022C79.5592 119.25 79.0013 119.367 78.4371 119.367H59.048C58.4835 119.367 57.9256 119.485 57.4114 119.714C56.8972 119.942 56.4386 120.276 56.0662 120.692C55.6937 121.109 55.4161 121.598 55.2517 122.128C55.0874 122.658 55.0401 123.217 55.1131 123.766L55.9407 130.08C56.0642 131.02 56.5322 131.884 57.2573 132.51C57.9824 133.136 58.9149 133.482 59.8805 133.482H81.312C82.2767 133.481 83.2085 133.826 83.9329 134.451C84.6572 135.076 85.1244 135.939 85.2469 136.879L89.3706 168.235C89.4941 169.175 89.9621 170.039 90.6872 170.665C91.4122 171.291 92.3447 171.636 93.3104 171.636H99.704C100.269 171.636 100.827 171.518 101.341 171.289C101.856 171.061 102.314 170.727 102.687 170.311C103.06 169.895 103.338 169.405 103.503 168.875C103.668 168.345 103.716 167.787 103.644 167.237L99.7718 137.886C99.6995 137.336 99.7475 136.778 99.9124 136.248C100.077 135.719 100.356 135.229 100.728 134.813C101.101 134.398 101.56 134.064 102.075 133.836C102.589 133.608 103.147 133.491 103.712 133.491H155.606C156.57 133.492 157.502 133.837 158.226 134.462C158.95 135.087 159.417 135.949 159.541 136.888L163.665 168.244C163.787 169.184 164.254 170.048 164.978 170.674C165.703 171.3 166.634 171.645 167.6 171.646H173.969C174.534 171.646 175.092 171.527 175.606 171.299C176.121 171.07 176.579 170.737 176.952 170.321C177.325 169.904 177.603 169.415 177.768 168.885C177.933 168.355 177.981 167.796 177.909 167.247L174.037 137.895C173.965 137.346 174.012 136.789 174.177 136.259C174.342 135.73 174.619 135.241 174.992 134.825C175.364 134.409 175.823 134.076 176.336 133.847C176.85 133.619 177.408 133.501 177.972 133.501H197.366C197.936 133.507 198.501 133.392 199.022 133.164C199.543 132.937 200.008 132.602 200.385 132.182C200.762 131.763 201.043 131.268 201.209 130.732C201.374 130.197 201.42 129.632 201.344 129.078ZM96.9065 115.965L92.444 82.1007C92.3725 81.5514 92.4211 80.9934 92.5863 80.4639C92.7516 79.9344 93.0299 79.4456 93.4026 79.0298C93.7753 78.6141 94.2339 78.281 94.7479 78.0528C95.262 77.8246 95.8196 77.7064 96.3838 77.7061H148.273C149.238 77.7063 150.17 78.051 150.895 78.6761C151.62 79.3012 152.089 80.1638 152.213 81.103L156.661 114.972C156.733 115.521 156.686 116.079 156.521 116.609C156.356 117.138 156.078 117.627 155.706 118.043C155.334 118.459 154.875 118.792 154.362 119.02C153.848 119.249 153.29 119.367 152.726 119.367H100.822C99.8561 119.368 98.9231 119.023 98.1978 118.396C97.4725 117.77 97.0048 116.906 96.8823 115.965H96.9065Z" fill="black"/>
<path d="M173.969 170.254H167.6C166.973 170.253 166.368 170.028 165.898 169.622C165.427 169.215 165.124 168.655 165.044 168.045L160.92 136.689C160.751 135.42 160.118 134.255 159.138 133.41C158.159 132.566 156.9 132.1 155.596 132.099H103.702C102.939 132.098 102.185 132.257 101.49 132.565C100.795 132.873 100.174 133.324 99.6705 133.886C99.1666 134.448 98.7906 135.109 98.5677 135.825C98.3448 136.541 98.2801 137.295 98.3778 138.038L102.25 167.389C102.297 167.746 102.265 168.108 102.158 168.452C102.051 168.796 101.87 169.114 101.627 169.384C101.385 169.653 101.087 169.869 100.753 170.017C100.418 170.165 100.056 170.24 99.6895 170.239H93.3152C92.6877 170.24 92.0816 170.016 91.6103 169.609C91.139 169.203 90.8349 168.641 90.7548 168.03L86.636 136.674C86.4649 135.406 85.831 134.242 84.8519 133.398C83.8728 132.554 82.615 132.088 81.312 132.085H59.8708C59.2439 132.083 58.6389 131.858 58.168 131.452C57.6972 131.046 57.3925 130.486 57.3105 129.876L56.4828 123.562C56.436 123.205 56.4672 122.843 56.5742 122.5C56.6813 122.156 56.8617 121.839 57.1036 121.569C57.3454 121.299 57.6431 121.083 57.9767 120.935C58.3103 120.787 58.6723 120.711 59.0383 120.711H78.4322C79.1947 120.711 79.9485 120.552 80.6433 120.243C81.3381 119.935 81.958 119.485 82.4617 118.923C82.9654 118.361 83.3414 117.7 83.5646 116.985C83.7878 116.269 83.8532 115.515 83.7562 114.773L79.3034 80.9128C79.1344 79.6436 78.5012 78.4778 77.5218 77.6327C76.5424 76.7875 75.2835 76.3206 73.9794 76.3187H52.5382C51.9123 76.3181 51.308 76.0941 50.8378 75.6886C50.3676 75.283 50.0637 74.7235 49.9827 74.1143L49.1502 67.7955C49.1034 67.4388 49.1347 67.0763 49.242 66.7323C49.3493 66.3883 49.5302 66.0708 49.7726 65.801C50.0149 65.5311 50.3132 65.3152 50.6474 65.1676C50.9816 65.02 51.3441 64.9441 51.7106 64.945H71.0996C71.8623 64.9458 72.6165 64.7868 73.3117 64.4788C74.0068 64.1707 74.6271 63.7206 75.131 63.1585C75.6349 62.5965 76.0108 61.9354 76.2337 61.2194C76.4566 60.5033 76.5214 59.7489 76.4236 59.0064L72.5516 29.6552C72.5048 29.2988 72.536 28.9367 72.643 28.5931C72.7501 28.2495 72.9305 27.9322 73.1724 27.6624C73.4142 27.3927 73.7119 27.1766 74.0455 27.0287C74.3791 26.8808 74.741 26.8044 75.1071 26.8047H81.4766C82.1035 26.8063 82.7085 27.0311 83.1793 27.4374C83.6502 27.8436 83.9549 28.4038 84.0369 29.0138L88.1558 60.3699C88.3259 61.6383 88.9595 62.8028 89.9388 63.647C90.9181 64.4912 92.1764 64.9575 93.4798 64.9593H145.394C146.156 64.96 146.91 64.8011 147.606 64.493C148.301 64.1849 148.921 63.7349 149.425 63.1728C149.929 62.6107 150.305 61.9496 150.528 61.2336C150.751 60.5176 150.815 59.7631 150.718 59.0206L146.846 29.6695C146.799 29.3131 146.83 28.951 146.937 28.6074C147.044 28.2637 147.225 27.9464 147.466 27.6767C147.708 27.4069 148.006 27.1909 148.339 27.043C148.673 26.8951 149.035 26.8187 149.401 26.8189H155.771C156.397 26.8215 157.002 27.0467 157.472 27.4528C157.943 27.8589 158.248 28.4184 158.331 29.0281L162.45 60.3841C162.619 61.6529 163.252 62.8181 164.232 63.6625C165.211 64.5068 166.47 64.9728 167.774 64.9735H189.244C189.87 64.9753 190.475 65.2002 190.945 65.6066C191.415 66.0129 191.719 66.573 191.8 67.1827L192.632 73.4824C192.679 73.8392 192.648 74.2017 192.54 74.5456C192.433 74.8896 192.252 75.2071 192.01 75.477C191.767 75.7468 191.469 75.9627 191.135 76.1104C190.801 76.258 190.438 76.3339 190.072 76.3329H170.658C169.896 76.3329 169.142 76.4924 168.447 76.8007C167.753 77.109 167.133 77.5591 166.629 78.121C166.125 78.6829 165.749 79.3437 165.526 80.0594C165.303 80.775 165.237 81.5292 165.334 82.2716L169.787 116.136C169.956 117.405 170.59 118.57 171.569 119.414C172.549 120.259 173.808 120.725 175.111 120.725H196.552C197.18 120.726 197.785 120.951 198.256 121.357C198.727 121.763 199.032 122.324 199.113 122.935L199.94 129.249C199.987 129.605 199.956 129.967 199.849 130.311C199.742 130.654 199.561 130.972 199.32 131.241C199.078 131.511 198.78 131.727 198.447 131.875C198.113 132.023 197.751 132.099 197.385 132.099H177.991C177.228 132.097 176.473 132.255 175.777 132.562C175.081 132.87 174.46 133.32 173.956 133.882C173.452 134.445 173.076 135.107 172.854 135.823C172.631 136.54 172.568 137.295 172.667 138.038L176.539 167.389C176.584 167.745 176.552 168.107 176.444 168.451C176.336 168.794 176.155 169.111 175.913 169.38C175.671 169.65 175.373 169.866 175.04 170.014C174.706 170.162 174.345 170.239 173.979 170.239L173.969 170.254ZM103.702 131.99H155.606C156.938 131.993 158.223 132.47 159.223 133.334C160.223 134.197 160.869 135.388 161.041 136.684L165.165 168.04C165.241 168.619 165.528 169.151 165.973 169.538C166.418 169.924 166.991 170.14 167.585 170.144H173.954C174.303 170.143 174.646 170.068 174.963 169.926C175.279 169.784 175.561 169.577 175.79 169.319C176.019 169.062 176.19 168.76 176.29 168.433C176.391 168.105 176.42 167.761 176.374 167.422L172.502 138.071C172.403 137.312 172.469 136.541 172.697 135.809C172.924 135.078 173.309 134.402 173.823 133.827C174.338 133.253 174.972 132.793 175.682 132.477C176.392 132.162 177.163 131.999 177.943 131.999H197.332C197.68 131.998 198.024 131.923 198.34 131.781C198.657 131.639 198.939 131.432 199.168 131.174C199.396 130.917 199.567 130.615 199.668 130.287C199.768 129.96 199.797 129.616 199.752 129.277L198.919 122.963C198.843 122.384 198.556 121.852 198.111 121.465C197.666 121.079 197.094 120.863 196.499 120.858H175.058C173.727 120.855 172.442 120.377 171.442 119.514C170.443 118.65 169.796 117.46 169.623 116.165L165.17 82.3001C165.07 81.5412 165.136 80.7702 165.364 80.0384C165.592 79.3066 165.976 78.6309 166.491 78.0563C167.006 77.4818 167.639 77.0215 168.35 76.7063C169.06 76.3911 169.83 76.2282 170.61 76.2284H189.999C190.347 76.2266 190.691 76.1521 191.007 76.0099C191.324 75.8676 191.606 75.6609 191.835 75.4034C192.064 75.1459 192.234 74.8436 192.335 74.5165C192.436 74.1894 192.464 73.845 192.419 73.5061L191.664 67.1827C191.586 66.6048 191.298 66.0739 190.854 65.6873C190.409 65.3007 189.838 65.0844 189.244 65.078H167.803C166.471 65.0754 165.185 64.598 164.184 63.7346C163.183 62.8713 162.536 61.6807 162.363 60.3841L158.244 29.0281C158.167 28.4498 157.879 27.9183 157.435 27.5316C156.99 27.1448 156.418 26.9288 155.824 26.9234H149.411C149.063 26.926 148.72 27.001 148.403 27.1435C148.087 27.286 147.805 27.4927 147.577 27.75C147.348 28.0073 147.177 28.3094 147.076 28.6361C146.975 28.9629 146.946 29.307 146.991 29.6457L150.863 58.9969C150.966 59.7596 150.901 60.5351 150.673 61.2713C150.445 62.0074 150.059 62.6869 149.54 63.2641C149.022 63.8413 148.384 64.3027 147.669 64.6173C146.953 64.9318 146.177 65.0922 145.394 65.0875H93.4894C92.1572 65.0849 90.8713 64.6075 89.8707 63.7441C88.8701 62.8808 88.2228 61.6902 88.0493 60.3936L83.9305 29.0376C83.8534 28.4593 83.5661 27.9278 83.1214 27.5411C82.6767 27.1543 82.1046 26.9383 81.5104 26.9329H75.1217C74.7735 26.9348 74.4298 27.0093 74.1132 27.1515C73.7967 27.2937 73.5146 27.5005 73.2857 27.7579C73.0568 28.0154 72.8864 28.3178 72.7857 28.6449C72.685 28.972 72.6563 29.3164 72.7017 29.6552L76.5737 59.0064C76.6752 59.7684 76.6094 60.5429 76.3806 61.2778C76.1518 62.0128 75.7654 62.6911 75.2473 63.2672C74.7291 63.8434 74.0913 64.3039 73.3767 64.6179C72.6621 64.9319 71.8873 65.092 71.1045 65.0875H51.7154C51.3675 65.0901 51.0242 65.1651 50.708 65.3076C50.3918 65.4501 50.1101 65.6568 49.8813 65.9141C49.6526 66.1714 49.4821 66.4734 49.3811 66.8002C49.2801 67.127 49.2509 67.4711 49.2954 67.8098L50.1037 74.1143C50.1807 74.6926 50.468 75.224 50.9127 75.6108C51.3575 75.9976 51.9296 76.2135 52.5237 76.2189H73.9649C75.2971 76.2216 76.583 76.699 77.5836 77.5623C78.5842 78.4257 79.2315 79.6163 79.405 80.9128L83.853 114.777C83.9535 115.536 83.888 116.307 83.6608 117.039C83.4336 117.77 83.05 118.446 82.5356 119.021C82.0211 119.596 81.3877 120.056 80.6776 120.371C79.9675 120.686 79.197 120.849 78.4177 120.849H59.048C58.6999 120.851 58.3561 120.925 58.0396 121.068C57.7231 121.21 57.441 121.417 57.2121 121.674C56.9832 121.931 56.8127 122.234 56.712 122.561C56.6113 122.888 56.5827 123.232 56.628 123.571L57.4556 129.885C57.5327 130.464 57.82 130.995 58.2647 131.382C58.7094 131.769 59.2815 131.984 59.8756 131.99H81.312C82.6437 131.993 83.929 132.47 84.9288 133.334C85.9286 134.197 86.5749 135.388 86.7473 136.684L90.871 168.04C90.947 168.619 91.2341 169.151 91.679 169.538C92.1239 169.924 92.6966 170.14 93.291 170.144H99.704C100.052 170.143 100.396 170.068 100.712 169.926C101.029 169.784 101.311 169.577 101.54 169.319C101.769 169.062 101.939 168.76 102.04 168.433C102.141 168.105 102.169 167.761 102.124 167.422L98.252 138.071C98.1522 137.312 98.2185 136.541 98.4462 135.809C98.674 135.078 99.0581 134.402 99.5729 133.827C100.088 133.253 100.721 132.793 101.432 132.477C102.142 132.162 102.913 131.999 103.692 131.999L103.702 131.99ZM152.726 120.849H100.822C99.4898 120.846 98.2039 120.369 97.2033 119.506C96.2027 118.642 95.5555 117.452 95.3819 116.155L90.9291 82.2906C90.8293 81.5317 90.8955 80.7607 91.1233 80.0289C91.3511 79.2971 91.7352 78.6214 92.25 78.0468C92.7648 77.4723 93.3985 77.012 94.1088 76.6968C94.8191 76.3816 95.5897 76.2187 96.3692 76.2189H148.273C149.606 76.2216 150.892 76.699 151.892 77.5623C152.893 78.4257 153.54 79.6163 153.714 80.9128L158.162 114.777C158.261 115.536 158.195 116.306 157.968 117.038C157.74 117.769 157.356 118.445 156.842 119.019C156.328 119.594 155.695 120.054 154.985 120.37C154.275 120.685 153.505 120.849 152.726 120.849ZM96.3692 76.3377C95.6067 76.3377 94.853 76.4972 94.1582 76.8055C93.4634 77.1138 92.8435 77.5639 92.3397 78.1258C91.836 78.6876 91.46 79.3484 91.2368 80.0641C91.0136 80.7798 90.9483 81.5339 91.0452 82.2763L95.498 116.141C95.6681 117.409 96.3018 118.574 97.2811 119.418C98.2604 120.262 99.5187 120.728 100.822 120.73H152.726C153.489 120.731 154.243 120.572 154.938 120.264C155.633 119.956 156.254 119.506 156.758 118.944C157.261 118.382 157.637 117.721 157.86 117.005C158.083 116.289 158.148 115.534 158.05 114.792L153.602 80.9318C153.433 79.6626 152.8 78.4968 151.821 77.6517C150.841 76.8065 149.582 76.3396 148.278 76.3377H96.3692Z" fill="#FF6C6C"/>
<path d="M133.545 151.953L137.345 154.134L143.08 145.829L139.281 143.644L133.545 151.953Z" fill="#E4897B"/>
<path d="M137.48 154.01L134.358 150.243C134.306 150.177 134.23 150.133 134.147 150.118C134.063 150.103 133.976 150.119 133.903 150.162L130.515 152.157C130.432 152.211 130.36 152.281 130.306 152.363C130.252 152.445 130.216 152.538 130.2 152.635C130.185 152.731 130.19 152.83 130.216 152.925C130.242 153.019 130.288 153.108 130.351 153.184C131.464 154.476 132.069 155.046 133.444 156.704C134.286 157.726 135.927 159.92 137.098 161.327C138.269 162.733 139.745 161.674 139.387 160.985C137.78 157.897 137.717 156.234 137.742 154.737C137.746 154.472 137.653 154.214 137.48 154.01Z" fill="#263238"/>
<path d="M138.908 156.372H138.816C138.196 156.277 137.538 155.212 137.204 154.59C137.197 154.577 137.194 154.562 137.196 154.547C137.198 154.533 137.204 154.519 137.214 154.508C137.224 154.497 137.238 154.489 137.252 154.486C137.267 154.483 137.282 154.484 137.296 154.49C137.5 154.576 139.29 155.35 139.402 155.915C139.411 155.966 139.407 156.019 139.39 156.068C139.373 156.117 139.344 156.161 139.305 156.196C139.254 156.25 139.193 156.294 139.125 156.324C139.057 156.354 138.983 156.37 138.908 156.372ZM137.456 154.699C137.964 155.597 138.487 156.163 138.86 156.22C138.926 156.231 138.994 156.225 139.057 156.204C139.121 156.182 139.178 156.145 139.223 156.096C139.243 156.077 139.259 156.053 139.268 156.026C139.277 156 139.28 155.972 139.276 155.944C139.184 155.564 138.056 154.98 137.456 154.699Z" fill="#FF6C6C"/>
<path d="M138.695 154.88C138.197 154.876 137.704 154.777 137.243 154.59C137.232 154.585 137.222 154.577 137.215 154.567C137.208 154.557 137.204 154.545 137.204 154.533C137.202 154.52 137.204 154.507 137.209 154.495C137.214 154.484 137.223 154.474 137.233 154.466C137.277 154.438 138.255 153.787 138.947 153.92C139.045 153.938 139.139 153.976 139.222 154.031C139.305 154.085 139.376 154.156 139.431 154.238C139.581 154.462 139.523 154.604 139.431 154.68C139.22 154.836 138.957 154.908 138.695 154.88ZM137.422 154.514C138.017 154.747 139.111 154.828 139.334 154.585C139.334 154.561 139.416 154.495 139.295 154.319C139.253 154.252 139.196 154.195 139.129 154.151C139.063 154.106 138.987 154.076 138.908 154.063C138.375 154.065 137.856 154.229 137.422 154.533V154.514Z" fill="#FF6C6C"/>
<path d="M127.582 86.5284L127.766 87.2505L127.974 88.0296C128.115 88.5522 128.275 89.0796 128.434 89.607C128.757 90.6617 129.097 91.7148 129.456 92.7663C129.833 93.8115 130.196 94.8662 130.607 95.9067C130.806 96.4245 131.004 96.9519 131.212 97.4697L131.459 98.0921C131.511 98.1994 131.576 98.2999 131.653 98.3914C132.256 98.9877 132.989 99.4425 133.797 99.7216C134.788 100.117 135.809 100.435 136.851 100.672C137.926 100.919 139.029 101.123 140.147 101.294C141.265 101.465 142.412 101.598 143.535 101.717L143.574 103.955C141.16 104.201 138.727 104.201 136.314 103.955C135.051 103.83 133.802 103.593 132.582 103.247C131.916 103.052 131.269 102.803 130.646 102.501C129.932 102.162 129.279 101.713 128.71 101.171C128.381 100.849 128.096 100.487 127.863 100.092C127.798 99.9893 127.738 99.8831 127.684 99.7739L127.573 99.5506L127.379 99.1563C127.118 98.6289 126.856 98.1016 126.614 97.5647C126.13 96.491 125.646 95.4126 125.221 94.3104C124.795 93.2081 124.383 92.0964 124.015 90.9847C123.836 90.4146 123.667 89.8398 123.531 89.2601L123.299 88.3765C123.231 88.0677 123.168 87.8016 123.101 87.4263L127.582 86.5284Z" fill="#E4897B"/>
<path d="M126.145 81.8202C127.96 82.2716 129.233 89.607 129.233 89.607L124.228 92.9326C124.228 92.9326 119.432 85.5355 120.84 83.5733C122.283 81.5494 123.497 81.1551 126.145 81.8202Z" fill="#FF6C6C"/>
<path opacity="0.2" d="M126.145 81.8202C127.96 82.2716 129.233 89.607 129.233 89.607L124.228 92.9326C124.228 92.9326 119.432 85.5355 120.84 83.5733C122.283 81.5494 123.497 81.1551 126.145 81.8202Z" fill="black"/>
<path d="M126.324 84.4855L122.452 85.3692L122.079 89.0986C122.738 90.4168 123.465 91.7013 124.257 92.9469L127.292 90.923C127.132 89.2079 126.808 85.6447 126.324 84.4855Z" fill="#FF6C6C"/>
<path opacity="0.3" d="M126.324 84.4855L122.452 85.3692L122.079 89.0986C122.738 90.4168 123.465 91.7013 124.257 92.9469L127.292 90.923C127.132 89.2079 126.808 85.6447 126.324 84.4855Z" fill="black"/>
<path d="M142.867 101.67L145.989 98.5624L146.4 102.938C146.4 102.938 144.058 104.496 142.436 103.66L142.867 101.67Z" fill="#E4897B"/>
<path d="M149.663 98.0921L149.803 101.779L146.4 102.933L145.989 98.5577L149.663 98.0921Z" fill="#E4897B"/>
<path d="M127.277 160.5H131.682L133.1 150.485H128.691L127.277 160.5Z" fill="#E4897B"/>
<path d="M131.972 159.208L127.616 156.923C127.542 156.883 127.455 156.871 127.372 156.889C127.289 156.907 127.216 156.955 127.166 157.022L124.828 160.153C124.773 160.234 124.735 160.326 124.718 160.423C124.701 160.519 124.704 160.618 124.728 160.713C124.752 160.808 124.797 160.897 124.858 160.974C124.92 161.051 124.997 161.115 125.085 161.16C126.619 161.93 127.403 162.225 129.325 163.227C130.506 163.845 133.468 165.55 135.104 166.405C136.74 167.261 137.679 165.717 137.079 165.218C134.383 162.985 133.076 161.165 132.51 159.783C132.407 159.533 132.217 159.329 131.972 159.208Z" fill="#263238"/>
<path d="M107.666 64.9307C107.554 69.6816 101.63 67.7195 100.967 73.1926C100.595 76.2664 96.8 76.5847 96.1273 79.3688C95.469 82.0625 98.1455 84.0199 96.1273 87.374C93.4265 91.8637 91.9165 99.6932 107.07 100.506C118.338 101.109 122.302 89.873 120.39 82.9699C118.478 76.0669 117.414 75.0027 119.509 73.1023C121.605 71.2019 124.964 70.2517 123.889 64.4461C123.057 59.9565 121.034 60.4839 121.034 60.4839C120.932 58.0039 107.932 54.3599 107.666 64.9307Z" fill="#263238"/>
<path d="M143.08 145.829L140.123 150.11L136.319 147.929L139.276 143.644L143.08 145.829Z" fill="#CE6F64"/>
<path d="M128.691 150.49H133.1L132.364 155.649H127.96L128.691 150.49Z" fill="#CE6F64"/>
<path d="M126.145 81.8202C126.145 81.8202 128.245 82.5471 124.04 107.917H106.132C106.432 100.791 106.436 96.3628 102.956 81.6919C105.462 81.1859 108.002 80.8588 110.555 80.7133C113.261 80.523 115.976 80.523 118.682 80.7133C122.186 81.0268 126.145 81.8202 126.145 81.8202Z" fill="#FF6C6C"/>
<path opacity="0.2" d="M126.145 81.8202C126.145 81.8202 128.245 82.5471 124.04 107.917H106.132C106.432 100.791 106.436 96.3628 102.956 81.6919C105.462 81.1859 108.002 80.8588 110.555 80.7133C113.261 80.523 115.976 80.523 118.682 80.7133C122.186 81.0268 126.145 81.8202 126.145 81.8202Z" fill="black"/>
<path d="M111.378 71.7388C111.891 74.3043 112.404 79.0029 110.575 80.718C110.575 80.718 111.291 83.3215 116.145 83.3215C120.821 83.3215 118.701 80.718 118.701 80.718C115.797 80.0339 115.86 77.9102 116.368 75.9148L111.378 71.7388Z" fill="#E4897B"/>
<path d="M113.411 73.4396L116.363 75.9101C116.239 76.3772 116.156 76.8541 116.116 77.3354C114.998 77.1786 113.469 75.9766 113.353 74.8316C113.287 74.3679 113.307 73.8965 113.411 73.4396Z" fill="#CE6F64"/>
<path d="M111.073 64.9735C110.589 69.2493 110.26 71.0262 112.041 73.5726C114.713 77.4019 120.158 77.0788 121.949 73.05C123.56 69.4251 124.117 63.0731 120.216 60.6454C119.359 60.1075 118.376 59.7939 117.36 59.7343C116.345 59.6747 115.33 59.8711 114.414 60.3049C113.498 60.7387 112.71 61.3954 112.125 62.2126C111.54 63.0298 111.178 63.9802 111.073 64.9735Z" fill="#E4897B"/>
<path d="M111.049 67.4915C111.664 68.6127 121.073 63.5055 120.003 60.7642C118.933 58.0229 116.131 59.0158 116.131 59.0158C116.131 59.0158 111.16 60.1276 110.323 62.6598C109.486 65.192 111.049 67.4915 111.049 67.4915Z" fill="#263238"/>
<path d="M109.239 67.9808C109.326 68.8037 109.729 69.563 110.367 70.1045C111.218 70.8124 112.065 70.1805 112.182 69.1543C112.288 68.2374 111.973 66.7788 110.952 66.4463C109.931 66.1137 109.142 66.9879 109.239 67.9808Z" fill="#E4897B"/>
<path d="M124.04 107.917C124.04 107.917 151.889 110.549 151.598 123.733C151.298 137.449 141.265 149.801 141.265 149.801L136.004 146.879C136.004 146.879 141.812 134.807 141.512 126.583C141.27 119.552 114.563 118.203 114.563 118.203L110.88 107.917H124.04Z" fill="#FF6C6C"/>
<path opacity="0.6" d="M124.04 107.917C124.04 107.917 151.889 110.549 151.598 123.733C151.298 137.449 141.265 149.801 141.265 149.801L136.004 146.879C136.004 146.879 141.812 134.807 141.512 126.583C141.27 119.552 114.563 118.203 114.563 118.203L110.88 107.917H124.04Z" fill="#FAFAFA"/>
<path d="M133.744 115.647L134.305 121.253C138.201 122.45 141.197 124.103 141.493 126.317C142.151 121.357 138.627 118.426 133.744 115.647Z" fill="#FF6C6C"/>
<path opacity="0.4" d="M133.744 115.647L134.305 121.253C138.201 122.45 141.197 124.103 141.493 126.317C142.151 121.357 138.627 118.426 133.744 115.647Z" fill="#FAFAFA"/>
<path d="M119.316 107.917C119.316 107.917 138.424 114.131 138.908 121.823C139.799 135.985 133.453 154.652 133.453 154.652H127.423C127.423 154.652 127.761 142.266 128.483 129.434C129.383 113.314 100.411 129.211 106.151 107.917H119.316Z" fill="#FF6C6C"/>
<path opacity="0.6" d="M119.316 107.917C119.316 107.917 138.424 114.131 138.908 121.823C139.799 135.985 133.453 154.652 133.453 154.652H127.423C127.423 154.652 127.761 142.266 128.483 129.434C129.383 113.314 100.411 129.211 106.151 107.917H119.316Z" fill="#FAFAFA"/>
<path d="M117.375 67.2967C117.312 67.6387 117.447 67.9476 117.675 67.9903C117.902 68.0331 118.159 67.7813 118.202 67.4392C118.246 67.0971 118.13 66.7836 117.902 66.7456C117.675 66.7076 117.438 66.9499 117.375 67.2967Z" fill="#263238"/>
<path d="M121.324 67.9903C121.266 68.3324 121.397 68.6412 121.629 68.684C121.862 68.7267 122.113 68.4797 122.157 68.1328C122.2 67.786 122.084 67.482 121.852 67.4392C121.62 67.3965 121.387 67.6435 121.324 67.9903Z" fill="#263238"/>
<path d="M121.75 67.463L122.631 67.3727C122.631 67.3727 122.084 67.9381 121.75 67.463Z" fill="#263238"/>
<path d="M120.172 68.4131C120.339 69.2378 120.617 70.0367 121 70.7886C120.798 70.8795 120.578 70.9266 120.356 70.9266C120.134 70.9266 119.915 70.8795 119.713 70.7886L120.172 68.4131Z" fill="#DE5753"/>
<path d="M117.718 71.7103H117.689C116.986 71.3856 116.435 70.8095 116.15 70.0997C116.147 70.0916 116.146 70.083 116.147 70.0744C116.147 70.0658 116.15 70.0575 116.154 70.0499C116.158 70.0423 116.164 70.0356 116.171 70.0303C116.177 70.025 116.185 70.0211 116.194 70.019C116.202 70.016 116.21 70.0146 116.219 70.0149C116.227 70.0152 116.236 70.0172 116.243 70.0207C116.251 70.0243 116.258 70.0293 116.264 70.0355C116.269 70.0418 116.273 70.0491 116.276 70.057C116.549 70.7278 117.067 71.2748 117.728 71.5915C117.744 71.5988 117.756 71.6117 117.763 71.6276C117.769 71.6435 117.769 71.6612 117.762 71.677C117.758 71.6853 117.751 71.6925 117.744 71.6982C117.736 71.7039 117.728 71.7081 117.718 71.7103Z" fill="#263238"/>
<path d="M116.934 65.7574C116.916 65.7574 116.897 65.7531 116.88 65.7449C116.863 65.7366 116.849 65.7246 116.838 65.7099C116.824 65.6987 116.814 65.6849 116.806 65.6693C116.799 65.6537 116.795 65.6368 116.795 65.6196C116.795 65.6025 116.799 65.5855 116.806 65.5699C116.814 65.5543 116.824 65.5405 116.838 65.5293C117.071 65.3181 117.353 65.1647 117.66 65.0821C117.966 64.9995 118.288 64.9899 118.599 65.0543C118.633 65.0631 118.662 65.0848 118.68 65.1146C118.698 65.1445 118.703 65.18 118.694 65.2134C118.685 65.2468 118.663 65.2753 118.632 65.2927C118.602 65.3101 118.566 65.3149 118.532 65.3061C118.262 65.2533 117.982 65.265 117.718 65.3403C117.453 65.4155 117.211 65.5521 117.012 65.7384C116.988 65.7519 116.962 65.7585 116.934 65.7574Z" fill="#263238"/>
<path d="M123.483 66.4463C123.457 66.4445 123.433 66.4361 123.411 66.4219C123.39 66.4077 123.373 66.3883 123.362 66.3655C123.259 66.116 123.097 65.8939 122.891 65.7173C122.684 65.5406 122.437 65.4144 122.171 65.3488C122.136 65.343 122.105 65.3237 122.084 65.2953C122.063 65.2668 122.054 65.2314 122.06 65.1968C122.067 65.1631 122.087 65.1334 122.116 65.1139C122.145 65.0944 122.18 65.0866 122.215 65.0923C122.525 65.1626 122.814 65.3057 123.056 65.5092C123.297 65.7127 123.486 65.9706 123.604 66.261C123.612 66.2764 123.616 66.2934 123.617 66.3106C123.618 66.3279 123.615 66.3452 123.609 66.3613C123.602 66.3774 123.593 66.392 123.58 66.4042C123.568 66.4164 123.553 66.4259 123.536 66.432C123.52 66.4417 123.502 66.4467 123.483 66.4463Z" fill="#263238"/>
<path d="M133.623 160.747C133.105 160.747 132.403 160.215 132.011 159.873C131.999 159.865 131.99 159.853 131.986 159.839C131.982 159.825 131.982 159.81 131.987 159.797C131.991 159.783 131.999 159.771 132.011 159.762C132.022 159.753 132.035 159.747 132.05 159.745C132.229 159.745 133.802 159.602 134.131 160.025C134.166 160.069 134.189 160.122 134.197 160.178C134.204 160.234 134.197 160.291 134.174 160.343C134.148 160.435 134.098 160.518 134.029 160.586C133.961 160.653 133.876 160.702 133.782 160.728C133.73 160.74 133.676 160.746 133.623 160.747ZM132.238 159.878C132.877 160.4 133.429 160.666 133.744 160.586C133.814 160.566 133.877 160.53 133.928 160.479C133.979 160.428 134.016 160.365 134.034 160.296C134.052 160.269 134.062 160.238 134.062 160.206C134.062 160.173 134.052 160.142 134.034 160.115C133.802 159.84 132.785 159.844 132.238 159.878Z" fill="#FF6C6C"/>
<path d="M132.059 159.892C132.046 159.893 132.033 159.89 132.022 159.883C132.01 159.876 132.002 159.866 131.996 159.854C131.991 159.843 131.987 159.831 131.987 159.818C131.987 159.806 131.991 159.794 131.996 159.783C132.021 159.74 132.616 158.652 133.226 158.509C133.299 158.489 133.376 158.485 133.451 158.499C133.526 158.513 133.596 158.544 133.657 158.59C133.725 158.625 133.778 158.682 133.807 158.752C133.837 158.821 133.84 158.899 133.816 158.97C133.686 159.407 132.597 159.878 132.064 159.892H132.059ZM133.357 158.638H133.255C132.819 158.738 132.364 159.436 132.19 159.716C132.698 159.64 133.569 159.241 133.671 158.913C133.671 158.861 133.695 158.78 133.569 158.695C133.506 158.655 133.432 158.635 133.357 158.638Z" fill="#FF6C6C"/>
<path d="M117.796 66.7456L118.682 66.6553C118.682 66.6553 118.13 67.2254 117.796 66.7456Z" fill="#263238"/>
<path d="M105.88 106.896L105.739 108.468C105.677 108.592 105.822 108.715 106.03 108.715H124.127C124.291 108.715 124.422 108.639 124.432 108.539L124.596 106.967C124.596 106.858 124.465 106.763 124.291 106.763H106.17C106.114 106.759 106.059 106.77 106.008 106.793C105.957 106.816 105.913 106.852 105.88 106.896Z" fill="#263238"/>
<path d="M108.314 108.877H107.83C107.734 108.877 107.661 108.829 107.666 108.767L107.893 106.725C107.893 106.663 107.985 106.615 108.082 106.615H108.566C108.663 106.615 108.735 106.663 108.731 106.725L108.503 108.767C108.493 108.829 108.416 108.877 108.314 108.877Z" fill="#FF6C6C"/>
<path opacity="0.6" d="M108.314 108.877H107.83C107.734 108.877 107.661 108.829 107.666 108.767L107.893 106.725C107.893 106.663 107.985 106.615 108.082 106.615H108.566C108.663 106.615 108.735 106.663 108.731 106.725L108.503 108.767C108.493 108.829 108.416 108.877 108.314 108.877Z" fill="#FAFAFA"/>
<path d="M122.767 108.877H122.283C122.186 108.877 122.113 108.829 122.123 108.767L122.35 106.725C122.35 106.663 122.437 106.615 122.534 106.615H123.018C123.115 106.615 123.188 106.663 123.178 106.725L122.951 108.767C122.936 108.829 122.863 108.877 122.767 108.877Z" fill="#FF6C6C"/>
<path opacity="0.6" d="M122.767 108.877H122.283C122.186 108.877 122.113 108.829 122.123 108.767L122.35 106.725C122.35 106.663 122.437 106.615 122.534 106.615H123.018C123.115 106.615 123.188 106.663 123.178 106.725L122.951 108.767C122.936 108.829 122.863 108.877 122.767 108.877Z" fill="#FAFAFA"/>
<path d="M115.54 108.877H115.056C114.96 108.877 114.882 108.829 114.892 108.767L115.119 106.725C115.119 106.663 115.211 106.615 115.308 106.615H115.792C115.889 106.615 115.962 106.663 115.957 106.725L115.729 108.767C115.72 108.829 115.637 108.877 115.54 108.877Z" fill="#FF6C6C"/>
<path opacity="0.6" d="M115.54 108.877H115.056C114.96 108.877 114.882 108.829 114.892 108.767L115.119 106.725C115.119 106.663 115.211 106.615 115.308 106.615H115.792C115.889 106.615 115.962 106.663 115.957 106.725L115.729 108.767C115.72 108.829 115.637 108.877 115.54 108.877Z" fill="#FAFAFA"/>
<path d="M107.187 88.5047L104.878 90.4336C105.362 92.9991 105.701 95.137 105.914 97.0374C106.345 95.1323 107.448 89.9633 107.187 88.5047Z" fill="#FF6C6C"/>
<path opacity="0.3" d="M107.187 88.5047L104.878 90.4336C105.362 92.9991 105.701 95.137 105.914 97.0374C106.345 95.1323 107.448 89.9633 107.187 88.5047Z" fill="black"/>
<path d="M156.095 95.7784H124.698L120.148 113.979H151.545L156.095 95.7784Z" fill="#FAFAFA"/>
<path d="M140.186 110.592L120.985 114.986L108.663 111.594L108.789 110.592H140.186Z" fill="#FAFAFA"/>
<path d="M105.648 87.9489C105.275 89.1604 104.868 90.4099 104.505 91.6451C104.142 92.8803 103.76 94.1251 103.431 95.3651C103.102 96.6051 102.787 97.8403 102.545 99.0518C102.429 99.6551 102.318 100.259 102.245 100.829C102.193 101.229 102.166 101.632 102.163 102.035C102.269 102.359 102.452 102.654 102.695 102.895C103.062 103.287 103.469 103.64 103.91 103.95C104.918 104.654 105.981 105.279 107.09 105.817C108.227 106.392 109.418 106.915 110.633 107.399C111.848 107.884 113.087 108.349 114.301 108.824L113.74 110.972C112.351 110.758 111.03 110.454 109.684 110.126C108.339 109.798 107.027 109.366 105.706 108.891C104.34 108.401 103.025 107.787 101.776 107.057C101.081 106.649 100.433 106.172 99.8395 105.632C99.0945 104.972 98.5303 104.139 98.1988 103.209C98.1076 102.926 98.0444 102.634 98.01 102.339V102.111V101.94V101.636C98.01 101.237 98.01 100.857 98.01 100.482C98.0487 99.7407 98.131 99.0565 98.2375 98.3439C98.4359 96.9566 98.7215 95.6169 99.0216 94.2961C99.6396 91.6676 100.394 89.0718 101.282 86.5189L105.648 87.9489Z" fill="#E4897B"/>
<path d="M102.976 81.7157C101.185 82.2526 98.4408 89.1604 98.4408 89.1604L105.396 94.0396C105.396 94.0396 108.523 88.1342 107.767 85.8585C106.964 83.4688 105.028 81.0838 102.976 81.7157Z" fill="#FF6C6C"/>
<path opacity="0.2" d="M102.976 81.7157C101.185 82.2526 98.4408 89.1604 98.4408 89.1604L105.396 94.0396C105.396 94.0396 108.523 88.1342 107.767 85.8585C106.964 83.4688 105.028 81.0838 102.976 81.7157Z" fill="black"/>
<path d="M113.396 108.957L117.578 107.917L115.584 111.855C115.584 111.855 112.762 111.974 111.828 110.43L113.396 108.957Z" fill="#E4897B"/>
<path d="M120.952 109.414L119.103 112.625L115.584 111.855L117.578 107.917L120.952 109.414Z" fill="#E4897B"/>
<path d="M157.063 95.7784H125.666L121.116 113.979H152.513L157.063 95.7784Z" fill="#263238"/>
<path d="M152.513 113.979L152.387 114.986H120.985L121.111 113.979H152.513Z" fill="#263238"/>
<path d="M119.253 62.4365C123.483 64.0993 123.831 66.489 123.609 64.8119C123.289 62.4032 121.252 60.6691 119.79 60.0848C118.933 59.7332 117.404 61.7096 119.253 62.4365Z" fill="#263238"/>
<path d="M111.368 64.6124L111.083 64.9402C111.038 64.9854 111.013 65.0459 111.013 65.1089C111.013 65.1718 111.038 65.2323 111.083 65.2775L113.367 67.3204C113.413 67.3615 113.472 67.3843 113.534 67.3843C113.596 67.3843 113.656 67.3615 113.701 67.3204L114.093 66.9641C114.119 66.9414 114.14 66.9136 114.154 66.8825C114.168 66.8514 114.176 66.8177 114.176 66.7836C114.176 66.7495 114.168 66.7158 114.154 66.6847C114.14 66.6536 114.119 66.6258 114.093 66.603L111.698 64.5887C111.649 64.5521 111.589 64.5342 111.528 64.5386C111.468 64.543 111.411 64.5693 111.368 64.6124Z" fill="#FF6C6C"/>
<path opacity="0.3" d="M111.368 64.6124L111.083 64.9402C111.038 64.9854 111.013 65.0459 111.013 65.1089C111.013 65.1718 111.038 65.2323 111.083 65.2775L113.367 67.3204C113.413 67.3615 113.472 67.3843 113.534 67.3843C113.596 67.3843 113.656 67.3615 113.701 67.3204L114.093 66.9641C114.119 66.9414 114.14 66.9136 114.154 66.8825C114.168 66.8514 114.176 66.8177 114.176 66.7836C114.176 66.7495 114.168 66.7158 114.154 66.6847C114.14 66.6536 114.119 66.6258 114.093 66.603L111.698 64.5887C111.649 64.5521 111.589 64.5342 111.528 64.5386C111.468 64.543 111.411 64.5693 111.368 64.6124Z" fill="black"/>
<path d="M110.783 80.414C110.831 80.775 111.238 82.5566 114.693 83.2265C114.693 83.2265 113.667 84.324 113.087 86.9512C113.087 86.9512 107.027 84.6185 108.866 80.8368C108.881 80.8065 108.902 80.7799 108.929 80.7593C108.956 80.7387 108.987 80.7245 109.021 80.718L110.705 80.3665C110.714 80.3644 110.722 80.3639 110.731 80.3652C110.739 80.3665 110.747 80.3694 110.754 80.3739C110.762 80.3783 110.768 80.3842 110.773 80.3911C110.778 80.3979 110.781 80.4057 110.783 80.414Z" fill="#FF6C6C"/>
<path opacity="0.6" d="M110.783 80.414C110.831 80.775 111.238 82.5566 114.693 83.2265C114.693 83.2265 113.667 84.324 113.087 86.9512C113.087 86.9512 107.027 84.6185 108.866 80.8368C108.881 80.8065 108.902 80.7799 108.929 80.7593C108.956 80.7387 108.987 80.7245 109.021 80.718L110.705 80.3665C110.714 80.3644 110.722 80.3639 110.731 80.3652C110.739 80.3665 110.747 80.3694 110.754 80.3739C110.762 80.3783 110.768 80.3842 110.773 80.3911C110.778 80.3979 110.781 80.4057 110.783 80.414Z" fill="#FAFAFA"/>
<path d="M118.503 80.6895C118.919 81.1218 120.056 82.5899 117.181 83.2645C117.181 83.2645 118.928 84.2147 119.509 86.8419C119.509 86.8419 123.812 83.9391 119.896 80.7845C119.892 80.7824 119.887 80.7813 119.882 80.7813C119.877 80.7813 119.872 80.7824 119.867 80.7845L118.556 80.604C118.546 80.6047 118.536 80.6078 118.528 80.6129C118.519 80.618 118.512 80.625 118.507 80.6334C118.502 80.6417 118.499 80.6512 118.498 80.6609C118.497 80.6707 118.499 80.6805 118.503 80.6895Z" fill="#FF6C6C"/>
<path opacity="0.6" d="M118.503 80.6895C118.919 81.1218 120.056 82.5899 117.181 83.2645C117.181 83.2645 118.928 84.2147 119.509 86.8419C119.509 86.8419 123.812 83.9391 119.896 80.7845C119.892 80.7824 119.887 80.7813 119.882 80.7813C119.877 80.7813 119.872 80.7824 119.867 80.7845L118.556 80.604C118.546 80.6047 118.536 80.6078 118.528 80.6129C118.519 80.618 118.512 80.625 118.507 80.6334C118.502 80.6417 118.499 80.6512 118.498 80.6609C118.497 80.6707 118.499 80.6805 118.503 80.6895Z" fill="#FAFAFA"/>
<path d="M89.0028 89.8968L84.6468 85.8443C84.7095 84.9993 84.6998 84.1507 84.6177 83.3073C83.7998 75.0597 76.4139 68.3752 68.1182 68.3799C59.8224 68.3847 53.7627 75.074 54.5662 83.3215C55.3696 91.5691 62.7652 98.2537 71.0609 98.2489C73.6179 98.2905 76.1332 97.6095 78.3069 96.287C80.4806 94.9645 82.221 93.0564 83.3206 90.79L89.0028 89.8968Z" fill="#FF6C6C"/>
<path d="M76.5591 77.972C74.2892 75.9148 70.9399 75.9196 69.0813 77.972C66.8114 75.9196 63.4621 75.9196 61.5987 77.972C59.7353 80.0244 60.0644 83.3595 62.3344 85.4119L70.5624 92.8471L77.3045 85.4072C79.1582 83.3548 78.8291 80.0244 76.5591 77.972Z" fill="#FF6C6C"/>
<path opacity="0.6" d="M76.5591 77.972C74.2892 75.9148 70.9399 75.9196 69.0813 77.972C66.8114 75.9196 63.4621 75.9196 61.5987 77.972C59.7353 80.0244 60.0644 83.3595 62.3344 85.4119L70.5624 92.8471L77.3045 85.4072C79.1582 83.3548 78.8291 80.0244 76.5591 77.972Z" fill="#FAFAFA"/>
</svg>
