<svg width="777" height="254" viewBox="0 0 777 254" fill="none" xmlns="http://www.w3.org/2000/svg">
<path d="M174 64.5C174 57.5964 179.596 52 186.5 52H763.5C770.404 52 776 57.5964 776 64.5C776 71.4036 770.404 77 763.5 77H186.5C179.596 77 174 71.4036 174 64.5Z" fill="#D9D9D9"/>
<path d="M174 64.5C174 57.5964 179.596 52 186.5 52H763.5C770.404 52 776 57.5964 776 64.5C776 71.4036 770.404 77 763.5 77H186.5C179.596 77 174 71.4036 174 64.5Z" fill="url(#paint0_linear_10_2)"/>
<path d="M46.314 190.046C38.378 190.046 31.372 188.124 25.296 184.28C19.344 180.436 14.694 174.918 11.346 167.726C7.998 160.534 6.324 152.04 6.324 142.244C6.324 132.448 7.998 124.016 11.346 116.948C14.694 109.88 19.344 104.424 25.296 100.58C31.372 96.736 38.378 94.814 46.314 94.814C53.506 94.814 59.83 96.55 65.286 100.022C70.866 103.494 74.648 108.02 76.632 113.6H74.586V69.518C74.586 64.806 75.764 61.272 78.12 58.916C80.476 56.436 83.948 55.196 88.536 55.196C93 55.196 96.472 56.436 98.952 58.916C101.432 61.272 102.672 64.806 102.672 69.518V175.352C102.672 179.94 101.432 183.474 98.952 185.954C96.596 188.434 93.186 189.674 88.722 189.674C84.258 189.674 80.786 188.434 78.306 185.954C75.95 183.474 74.772 179.94 74.772 175.352V162.704L76.818 169.958C75.082 176.034 71.362 180.932 65.658 184.652C60.078 188.248 53.63 190.046 46.314 190.046ZM54.684 169.028C58.776 169.028 62.31 168.036 65.286 166.052C68.262 164.068 70.618 161.154 72.354 157.31C74.09 153.342 74.958 148.32 74.958 142.244C74.958 133.192 73.098 126.558 69.378 122.342C65.658 118.002 60.76 115.832 54.684 115.832C50.716 115.832 47.182 116.762 44.082 118.622C41.106 120.482 38.75 123.396 37.014 127.364C35.402 131.208 34.596 136.168 34.596 142.244C34.596 151.296 36.456 158.054 40.176 162.518C43.896 166.858 48.732 169.028 54.684 169.028ZM138.449 189.488C133.861 189.488 130.327 188.186 127.847 185.582C125.491 182.854 124.313 179.072 124.313 174.236V110.624C124.313 105.664 125.491 101.882 127.847 99.278C130.327 96.55 133.861 95.186 138.449 95.186C142.913 95.186 146.323 96.55 148.679 99.278C151.159 101.882 152.399 105.664 152.399 110.624V174.236C152.399 179.072 151.221 182.854 148.865 185.582C146.509 188.186 143.037 189.488 138.449 189.488ZM138.449 79.934C133.241 79.934 129.211 78.756 126.359 76.4C123.631 73.92 122.267 70.448 122.267 65.984C122.267 61.396 123.631 57.924 126.359 55.568C129.211 53.088 133.241 51.848 138.449 51.848C143.657 51.848 147.625 53.088 150.353 55.568C153.081 57.924 154.445 61.396 154.445 65.984C154.445 70.448 153.081 73.92 150.353 76.4C147.625 78.756 143.657 79.934 138.449 79.934ZM212.771 189.674C209.175 189.674 206.013 188.744 203.285 186.884C200.557 184.9 198.387 181.986 196.775 178.142L168.689 113.414C167.325 110.19 166.829 107.214 167.201 104.486C167.573 101.634 168.875 99.402 171.107 97.79C173.463 96.054 176.687 95.186 180.779 95.186C184.127 95.186 186.855 95.992 188.963 97.604C191.071 99.092 192.931 102.006 194.543 106.346L216.491 162.146H210.539L233.417 106.16C235.153 101.944 237.075 99.092 239.183 97.604C241.291 95.992 244.205 95.186 247.925 95.186C251.149 95.186 253.691 96.054 255.551 97.79C257.535 99.402 258.713 101.572 259.085 104.3C259.581 107.028 259.085 110.004 257.597 113.228L228.953 178.142C227.341 182.11 225.171 185.024 222.443 186.884C219.839 188.744 216.615 189.674 212.771 189.674ZM318.691 190.046C307.903 190.046 298.603 188.124 290.791 184.28C283.103 180.312 277.151 174.794 272.935 167.726C268.843 160.534 266.797 152.102 266.797 142.43C266.797 133.006 268.781 124.76 272.749 117.692C276.717 110.5 282.235 104.92 289.303 100.952C296.495 96.86 304.617 94.814 313.669 94.814C320.241 94.814 326.193 95.93 331.525 98.162C336.857 100.27 341.445 103.37 345.289 107.462C349.133 111.43 352.047 116.328 354.031 122.156C356.015 127.86 357.007 134.246 357.007 141.314C357.007 143.67 356.263 145.468 354.775 146.708C353.287 147.824 351.117 148.382 348.265 148.382H289.861V133.874H336.733L333.757 136.478C333.757 131.394 333.013 127.178 331.525 123.83C330.037 120.358 327.867 117.754 325.015 116.018C322.287 114.282 318.877 113.414 314.785 113.414C310.197 113.414 306.291 114.468 303.067 116.576C299.843 118.684 297.363 121.722 295.627 125.69C293.891 129.658 293.023 134.432 293.023 140.012V141.5C293.023 150.924 295.193 157.868 299.533 162.332C303.997 166.796 310.569 169.028 319.249 169.028C322.225 169.028 325.635 168.656 329.479 167.912C333.323 167.168 336.919 165.99 340.267 164.378C343.119 163.014 345.661 162.58 347.893 163.076C350.125 163.448 351.861 164.44 353.101 166.052C354.341 167.664 355.023 169.524 355.147 171.632C355.395 173.74 354.961 175.848 353.845 177.956C352.729 179.94 350.869 181.614 348.265 182.978C344.049 185.334 339.275 187.07 333.943 188.186C328.735 189.426 323.651 190.046 318.691 190.046ZM387.851 189.674C383.139 189.674 379.543 188.434 377.063 185.954C374.583 183.474 373.343 179.94 373.343 175.352V109.322C373.343 104.734 374.521 101.262 376.877 98.906C379.357 96.426 382.767 95.186 387.107 95.186C391.571 95.186 394.981 96.426 397.337 98.906C399.693 101.262 400.871 104.734 400.871 109.322V118.994H399.011C400.499 111.554 403.785 105.788 408.869 101.696C413.953 97.604 420.525 95.31 428.585 94.814C431.685 94.566 434.041 95.372 435.653 97.232C437.389 98.968 438.319 101.882 438.443 105.974C438.691 109.818 437.885 112.856 436.025 115.088C434.289 117.32 431.313 118.684 427.097 119.18L422.819 119.552C415.751 120.172 410.481 122.218 407.009 125.69C403.661 129.162 401.987 134.184 401.987 140.756V175.352C401.987 179.94 400.747 183.474 398.267 185.954C395.911 188.434 392.439 189.674 387.851 189.674ZM459.214 188.93C454.254 188.93 450.286 187.442 447.31 184.466C444.458 181.49 443.032 177.646 443.032 172.934C443.032 168.346 444.458 164.626 447.31 161.774C450.286 158.798 454.254 157.31 459.214 157.31C464.174 157.31 468.018 158.798 470.746 161.774C473.598 164.626 475.024 168.346 475.024 172.934C475.024 177.646 473.598 181.49 470.746 184.466C468.018 187.442 464.174 188.93 459.214 188.93ZM529.283 190.046C523.827 190.046 518.185 189.55 512.357 188.558C506.653 187.566 501.445 185.892 496.733 183.536C494.253 182.296 492.455 180.746 491.339 178.886C490.347 176.902 489.913 174.918 490.037 172.934C490.161 170.95 490.781 169.152 491.897 167.54C493.137 165.928 494.687 164.874 496.547 164.378C498.531 163.758 500.701 163.944 503.057 164.936C508.141 167.044 512.791 168.532 517.007 169.4C521.223 170.268 525.377 170.702 529.469 170.702C534.801 170.702 538.645 169.896 541.001 168.284C543.481 166.548 544.721 164.316 544.721 161.588C544.721 159.108 543.915 157.248 542.303 156.008C540.691 154.768 538.335 153.9 535.235 153.404L515.705 149.87C508.017 148.506 502.065 145.716 497.849 141.5C493.757 137.16 491.711 131.642 491.711 124.946C491.711 118.746 493.447 113.414 496.919 108.95C500.391 104.362 505.165 100.89 511.241 98.534C517.441 96.054 524.447 94.814 532.259 94.814C537.839 94.814 542.985 95.31 547.697 96.302C552.409 97.294 556.935 98.906 561.275 101.138C563.507 102.254 565.057 103.742 565.925 105.602C566.917 107.462 567.227 109.384 566.855 111.368C566.607 113.352 565.863 115.15 564.623 116.762C563.383 118.374 561.771 119.428 559.787 119.924C557.927 120.42 555.757 120.172 553.277 119.18C549.309 117.32 545.651 116.018 542.303 115.274C538.955 114.406 535.731 113.972 532.631 113.972C527.051 113.972 523.021 114.902 520.541 116.762C518.061 118.498 516.821 120.73 516.821 123.458C516.821 125.566 517.503 127.364 518.867 128.852C520.355 130.216 522.587 131.146 525.563 131.642L545.093 135.176C553.153 136.54 559.291 139.268 563.507 143.36C567.723 147.328 569.831 152.784 569.831 159.728C569.831 169.152 566.111 176.592 558.671 182.048C551.355 187.38 541.559 190.046 529.283 190.046ZM629.758 190.046C619.962 190.046 611.406 188.124 604.09 184.28C596.898 180.436 591.318 174.918 587.35 167.726C583.382 160.534 581.398 152.04 581.398 142.244C581.398 134.928 582.514 128.356 584.746 122.528C586.978 116.7 590.202 111.74 594.418 107.648C598.758 103.432 603.904 100.27 609.856 98.162C615.808 95.93 622.442 94.814 629.758 94.814C639.554 94.814 648.048 96.736 655.24 100.58C662.556 104.424 668.198 109.88 672.166 116.948C676.258 124.016 678.304 132.448 678.304 142.244C678.304 149.684 677.126 156.318 674.77 162.146C672.538 167.974 669.314 172.996 665.098 177.212C660.882 181.428 655.736 184.652 649.66 186.884C643.708 188.992 637.074 190.046 629.758 190.046ZM629.758 169.028C633.85 169.028 637.384 168.036 640.36 166.052C643.336 164.068 645.692 161.154 647.428 157.31C649.164 153.342 650.032 148.32 650.032 142.244C650.032 133.192 648.172 126.558 644.452 122.342C640.732 118.002 635.834 115.832 629.758 115.832C625.79 115.832 622.256 116.762 619.156 118.622C616.18 120.482 613.824 123.396 612.088 127.364C610.476 131.208 609.67 136.168 609.67 142.244C609.67 151.296 611.53 158.054 615.25 162.518C618.97 166.858 623.806 169.028 629.758 169.028ZM730.36 190.046C724.904 190.046 719.262 189.55 713.434 188.558C707.73 187.566 702.522 185.892 697.81 183.536C695.33 182.296 693.532 180.746 692.416 178.886C691.424 176.902 690.99 174.918 691.114 172.934C691.238 170.95 691.858 169.152 692.974 167.54C694.214 165.928 695.764 164.874 697.624 164.378C699.608 163.758 701.778 163.944 704.134 164.936C709.218 167.044 713.868 168.532 718.084 169.4C722.3 170.268 726.454 170.702 730.546 170.702C735.878 170.702 739.722 169.896 742.078 168.284C744.558 166.548 745.798 164.316 745.798 161.588C745.798 159.108 744.992 157.248 743.38 156.008C741.768 154.768 739.412 153.9 736.312 153.404L716.782 149.87C709.094 148.506 703.142 145.716 698.926 141.5C694.834 137.16 692.788 131.642 692.788 124.946C692.788 118.746 694.524 113.414 697.996 108.95C701.468 104.362 706.242 100.89 712.318 98.534C718.518 96.054 725.524 94.814 733.336 94.814C738.916 94.814 744.062 95.31 748.774 96.302C753.486 97.294 758.012 98.906 762.352 101.138C764.584 102.254 766.134 103.742 767.002 105.602C767.994 107.462 768.304 109.384 767.932 111.368C767.684 113.352 766.94 115.15 765.7 116.762C764.46 118.374 762.848 119.428 760.864 119.924C759.004 120.42 756.834 120.172 754.354 119.18C750.386 117.32 746.728 116.018 743.38 115.274C740.032 114.406 736.808 113.972 733.708 113.972C728.128 113.972 724.098 114.902 721.618 116.762C719.138 118.498 717.898 120.73 717.898 123.458C717.898 125.566 718.58 127.364 719.944 128.852C721.432 130.216 723.664 131.146 726.64 131.642L746.17 135.176C754.23 136.54 760.368 139.268 764.584 143.36C768.8 147.328 770.908 152.784 770.908 159.728C770.908 169.152 767.188 176.592 759.748 182.048C752.432 187.38 742.636 190.046 730.36 190.046Z" fill="black"/>
<defs>
<linearGradient id="paint0_linear_10_2" x1="174" y1="64.4023" x2="776" y2="64.4023" gradientUnits="userSpaceOnUse">
<stop stop-color="#ED1B24"/>
<stop offset="0.0833333" stop-color="#FF8027"/>
<stop offset="0.1896" stop-color="#FEF102"/>
<stop offset="0.285573" stop-color="#24B04D"/>
<stop offset="0.395007" stop-color="#1617FF"/>
<stop offset="0.48924" stop-color="#8C3D8C"/>
<stop offset="0.591944" stop-color="white"/>
<stop offset="0.695706" stop-color="#FEAEC9"/>
<stop offset="0.802645" stop-color="#81FDFD"/>
<stop offset="0.901113" stop-color="#7B4D33"/>
<stop offset="1" stop-color="#010101"/>
</linearGradient>
</defs>
</svg>
