<svg width="33" height="32" viewBox="0 0 33 32" fill="none" xmlns="http://www.w3.org/2000/svg">
<path d="M16.1784 10.4879C12.8099 10.4879 10.054 13.2439 10.054 16.6123C10.054 19.9807 12.8099 22.7367 16.1784 22.7367C19.5468 22.7367 22.3028 19.9807 22.3028 16.6123C22.3028 13.2439 19.5468 10.4879 16.1784 10.4879ZM16.1784 20.6952C13.9327 20.6952 12.0954 18.8579 12.0954 16.6123C12.0954 14.3667 13.9327 12.5294 16.1784 12.5294C18.424 12.5294 20.2613 14.3667 20.2613 16.6123C20.2613 18.8579 18.424 20.6952 16.1784 20.6952Z" fill="black"/>
<path d="M16.1783 25.4929C12.376 25.4929 8.72692 27.0751 6.12405 29.8566C5.74274 30.2661 5.76882 30.9131 6.17487 31.2981C6.57899 31.6813 7.22462 31.6677 7.60412 31.2601C9.84973 28.8613 12.8864 27.5344 16.1783 27.5344C19.4701 27.5344 22.5068 28.8613 24.7524 31.2601C25.1319 31.6677 25.7776 31.6813 26.1817 31.2981C26.5877 30.9131 26.6138 30.2661 26.2325 29.8566C23.6296 27.1006 19.9805 25.4929 16.1783 25.4929Z" fill="black"/>
<path d="M25.6188 12.0429C25.0577 11.9886 24.5996 12.4507 24.5996 13.0144C24.5996 13.5781 25.0583 14.0287 25.6182 14.0943C27.2882 14.2899 28.8393 14.9666 30.1323 16.0593C30.565 16.425 31.2111 16.4489 31.6222 16.059C32.0294 15.6729 32.0528 15.0267 31.6328 14.6547C29.9624 13.1754 27.8461 12.2586 25.6188 12.0429Z" fill="black"/>
<path d="M29.4733 4.874C29.4733 2.19458 27.2788 0 24.5993 0C21.9199 0 19.7253 2.19458 19.7253 4.874C19.7253 7.55343 21.9199 9.748 24.5993 9.748C27.2788 9.748 29.4733 7.55343 29.4733 4.874ZM21.7668 4.874C21.7668 3.31738 23.0427 2.04147 24.5993 2.04147C26.156 2.04147 27.4319 3.31738 27.4319 4.874C27.4319 6.43062 26.156 7.70654 24.5993 7.70654C23.0427 7.70654 21.7668 6.43062 21.7668 4.874Z" fill="black"/>
<path d="M7.75757 13.0144C7.75757 12.4507 7.29947 11.9886 6.73836 12.0429C4.50979 12.2588 2.3923 13.1765 0.721438 14.6573C0.303166 15.028 0.326525 15.6717 0.732072 16.0563C1.14383 16.4467 1.79169 16.4203 2.22426 16.053C3.50726 14.9637 5.06758 14.2892 6.73902 14.0941C7.29895 14.0288 7.75757 13.5781 7.75757 13.0144Z" fill="black"/>
<path d="M12.6313 4.874C12.6313 2.19458 10.4367 0 7.7573 0C5.07788 0 2.8833 2.19458 2.8833 4.874C2.8833 7.55343 5.07788 9.748 7.7573 9.748C10.4367 9.748 12.6313 7.55343 12.6313 4.874ZM7.7573 7.70654C6.20068 7.70654 4.92477 6.43062 4.92477 4.874C4.92477 3.31738 6.20068 2.04147 7.7573 2.04147C9.31392 2.04147 10.5898 3.31738 10.5898 4.874C10.5898 6.43062 9.31392 7.70654 7.7573 7.70654Z" fill="black"/>
</svg>
