<svg width="37" height="35" viewBox="0 0 37 35" fill="none" xmlns="http://www.w3.org/2000/svg">
<path d="M4 7H9.5L12 6.5L14 2.5L17 1L22.5 1.5L24.5 7H30.5L35 8.5L36 18L33.5 18.5L34 29.5L31.5 33.5H6.5L4 31.5L3.5 19.5L2 19L1 11L4 7Z" fill="FFE79D"/>
<path d="M3.38889 18.4412H1.5V10.9118C1.5 8.83257 3.19137 7.14706 5.27778 7.14706H12.8333M3.38889 18.4412V29.7353C3.38889 31.8145 5.08026 33.5 7.16667 33.5H29.8333C31.9198 33.5 33.6111 31.8145 33.6111 29.7353V18.4412M3.38889 18.4412H14.7222H3.38889ZM33.6111 18.4412H35.5V10.9118C35.5 8.83257 33.8087 7.14706 31.7222 7.14706H24.1667M33.6111 18.4412H22.2778H33.6111ZM22.2778 18.4412V14.6765H14.7222V18.4412M22.2778 18.4412V22.2059H14.7222V18.4412M12.8333 7.14706V5.26471C12.8333 3.18552 14.5247 1.5 16.6111 1.5H20.3889C22.4754 1.5 24.1667 3.18552 24.1667 5.26471V7.14706M12.8333 7.14706H24.1667H12.8333Z" fill="none"/>
<path d="M3.38889 18.4412H1.5V10.9118C1.5 8.83257 3.19137 7.14706 5.27778 7.14706H12.8333M3.38889 18.4412V29.7353C3.38889 31.8145 5.08026 33.5 7.16667 33.5H29.8333C31.9198 33.5 33.6111 31.8145 33.6111 29.7353V18.4412M3.38889 18.4412H14.7222M12.8333 7.14706V5.26471C12.8333 3.18552 14.5247 1.5 16.6111 1.5H20.3889C22.4754 1.5 24.1667 3.18552 24.1667 5.26471V7.14706M12.8333 7.14706H24.1667M33.6111 18.4412H35.5V10.9118C35.5 8.83257 33.8087 7.14706 31.7222 7.14706H24.1667M33.6111 18.4412H22.2778M14.7222 18.4412V14.6765H22.2778V18.4412M14.7222 18.4412V22.2059H22.2778V18.4412" stroke="black" stroke-width="3" stroke-linecap="round" stroke-linejoin="round"/>
</svg>
