<svg width="27" height="35" viewBox="0 0 27 35" fill="none" xmlns="http://www.w3.org/2000/svg">
<circle cx="13.6426" cy="9" r="6.5" fill="none"/>
<path d="M2.14258 33.5C2.14258 24.7 10.1426 21.8333 14.1426 21.5C22.9426 22.3 25.1426 29.8333 25.1426 33.5H2.14258Z" fill="none"/>
<path d="M20.5 8.5C20.5 12.366 17.3659 15.5 13.5 15.5C9.634 15.5 6.5 12.366 6.5 8.5C6.5 4.634 9.634 1.5 13.5 1.5C17.3659 1.5 20.5 4.634 20.5 8.5Z" stroke="black" stroke-width="3" stroke-linecap="round" stroke-linejoin="round"/>
<path d="M13.5 21.5C6.87259 21.5 1.5 26.8726 1.5 33.5H25.5C25.5 26.8726 20.1274 21.5 13.5 21.5Z" stroke="black" stroke-width="3" stroke-linecap="round" stroke-linejoin="round"/>
</svg>
